{"glyphs":{"0":{"ha":978,"x_min":0,"x_max":0,"o":"m 944 500 b 493 1029 944 878 799 1029 b 33 494 194 1029 33 846 b 467 -26 33 144 176 -26 b 944 500 779 -26 944 160 z m 490 222 b 421 278 463 222 436 233 b 401 490 407 317 401 383 b 493 782 401 703 417 782 b 575 475 565 782 575 706 b 490 222 575 335 571 222 z "},"1":{"ha":978,"x_min":0,"x_max":0,"o":"m 413 1003 b 119 831 361 940 265 879 l 119 546 b 335 656 186 561 267 601 l 335 0 l 717 0 l 717 1003 z "},"2":{"ha":978,"x_min":0,"x_max":0,"o":"m 928 713 b 486 1022 928 911 765 1022 b 39 672 172 1022 39 897 l 388 672 b 474 785 388 750 417 785 b 550 710 519 785 550 760 b 279 407 550 625 446 513 l 49 261 l 49 0 l 929 0 l 929 261 l 539 261 b 797 442 661 332 738 388 b 928 713 896 532 928 635 z "},"3":{"ha":978,"x_min":0,"x_max":0,"o":"m 908 743 b 478 1025 908 921 760 1025 b 76 851 294 1025 146 978 b 42 692 53 808 43 772 l 375 692 b 460 799 375 765 400 799 b 549 715 519 799 549 771 b 390 613 549 644 517 613 b 350 614 379 613 365 613 l 350 401 b 382 403 363 403 372 403 b 558 297 515 403 558 372 b 464 203 558 236 525 203 b 365 313 399 203 365 239 l 26 313 l 26 297 b 471 -28 26 88 176 -28 b 799 46 615 -28 724 -3 b 928 294 888 103 928 200 b 692 524 928 429 853 507 b 908 743 835 546 908 625 z "},"4":{"ha":978,"x_min":0,"x_max":0,"o":"m 354 1003 l 17 446 l 17 161 l 474 161 l 474 0 l 839 0 l 839 161 l 958 161 l 958 415 l 839 415 l 839 1003 z m 482 758 l 482 415 l 293 415 z "},"5":{"ha":978,"x_min":0,"x_max":0,"o":"m 92 1003 l 74 396 l 401 396 b 475 474 406 446 431 474 b 553 347 535 474 553 446 b 540 246 553 301 549 268 b 471 200 526 210 500 200 b 407 276 432 200 408 226 l 53 276 b 479 -28 60 78 218 -28 b 849 117 672 -28 782 33 b 928 356 901 183 928 264 b 600 675 928 551 800 675 b 394 604 515 675 451 654 l 408 765 l 865 765 l 865 1003 z "},"6":{"ha":978,"x_min":0,"x_max":0,"o":"m 897 726 b 522 1025 897 917 778 1025 b 44 488 211 1025 44 832 b 500 -29 44 147 200 -29 b 940 342 775 -29 940 114 b 603 650 940 528 806 650 b 399 569 513 650 450 626 b 419 732 399 638 406 693 b 504 804 435 779 460 804 b 572 726 553 804 572 781 z m 504 197 b 413 318 443 197 413 239 b 508 451 413 411 443 451 b 599 333 571 451 599 417 b 504 197 599 243 569 197 z "},"7":{"ha":978,"x_min":0,"x_max":0,"o":"m 58 1003 l 58 735 l 503 735 l 126 0 l 532 0 l 907 786 l 907 1003 z "},"8":{"ha":978,"x_min":0,"x_max":0,"o":"m 914 725 b 504 1025 914 919 769 1025 b 61 724 214 1025 61 914 b 236 507 61 607 115 539 b 36 267 110 483 36 394 b 469 -28 36 76 210 -28 b 943 271 775 -28 943 76 b 744 508 943 394 872 481 b 914 725 850 532 914 613 z m 489 619 b 418 714 440 619 418 647 b 490 803 418 781 444 803 b 561 717 542 803 561 778 b 489 619 561 646 543 619 z m 486 197 b 401 296 431 197 401 229 b 492 400 401 368 435 400 b 575 296 549 400 575 372 b 486 197 575 229 546 197 z "},"9":{"ha":978,"x_min":0,"x_max":0,"o":"m 929 508 b 474 1025 929 857 774 1025 b 33 656 200 1025 33 885 b 371 347 33 465 175 347 b 575 428 461 347 524 371 b 469 193 571 236 533 193 b 401 269 422 193 401 218 l 78 269 b 453 -29 78 74 203 -29 b 929 508 763 -29 929 165 z m 465 544 b 376 664 403 544 376 581 b 468 799 376 760 408 799 b 561 679 533 799 561 758 b 465 544 561 586 531 544 z "},"\u0000":{"ha":0,"x_min":0,"x_max":0,"o":""},"\r":{"ha":489,"x_min":0,"x_max":0,"o":""}," ":{"ha":489,"x_min":0,"x_max":0,"o":""},"!":{"ha":514,"x_min":0,"x_max":0,"o":"m 57 1003 l 117 296 l 396 296 l 457 1003 z m 92 228 l 92 0 l 422 0 l 422 228 z "},"\"":{"ha":822,"x_min":0,"x_max":0,"o":"m 118 1003 l 160 586 l 329 586 l 371 1003 z m 451 1003 l 493 586 l 663 586 l 704 1003 z "},"#":{"ha":978,"x_min":0,"x_max":0,"o":"m 338 1003 l 303 733 l 181 733 l 181 569 l 281 569 l 261 433 l 139 433 l 139 269 l 239 269 l 203 0 l 375 0 l 411 269 l 504 269 l 468 0 l 640 0 l 676 269 l 799 269 l 799 433 l 699 433 l 717 569 l 839 569 l 839 733 l 739 733 l 775 1003 l 603 1003 l 568 733 l 475 733 l 510 1003 z m 451 569 l 544 569 l 526 433 l 433 433 z "},"$":{"ha":978,"x_min":0,"x_max":0,"o":"m 374 1157 l 374 1021 b 36 699 151 989 36 881 b 306 417 36 529 143 465 l 468 368 b 594 282 522 351 594 344 b 496 197 594 233 553 197 b 396 306 424 197 396 233 l 396 313 l 18 313 l 18 289 b 374 -24 18 122 132 8 l 374 -167 l 581 -167 l 581 -26 b 965 319 808 -6 965 104 b 703 617 965 483 872 574 l 524 663 b 401 742 461 678 401 692 b 492 808 401 782 436 808 b 581 721 554 808 579 786 l 935 721 b 581 1026 935 897 824 1006 l 581 1157 z "},"%":{"ha":1467,"x_min":0,"x_max":0,"o":"m 604 697 b 332 1022 604 915 511 1022 b 33 681 138 1022 33 899 b 311 360 33 471 129 360 b 604 697 504 360 604 471 z m 931 1003 l 369 0 l 540 0 l 1097 1003 z m 324 522 b 269 699 281 522 269 567 b 322 854 269 808 283 854 b 372 689 358 854 372 822 b 324 522 372 565 361 522 z m 1432 318 b 1160 643 1432 536 1339 643 b 861 301 964 643 861 519 b 1139 -19 861 92 956 -19 b 1432 318 1331 -19 1432 92 z m 1151 143 b 1097 319 1108 143 1097 193 b 1151 475 1097 432 1113 475 b 1200 310 1186 475 1200 442 b 1151 143 1200 179 1189 143 z "},"&":{"ha":1233,"x_min":0,"x_max":0,"o":"m 919 794 b 528 1029 919 939 772 1029 b 119 782 271 1029 119 942 b 282 542 119 697 172 619 b 26 274 97 481 26 400 b 461 -29 26 90 197 -29 b 797 60 590 -29 714 4 l 856 0 l 1239 0 l 1035 214 b 1186 553 1118 281 1186 439 l 900 553 b 843 397 894 486 875 438 l 718 518 b 919 794 853 603 919 696 z m 521 674 b 431 785 464 710 431 750 b 522 849 431 829 472 849 b 614 783 582 849 614 822 b 521 674 614 750 586 718 z m 633 214 b 485 161 578 181 524 161 b 364 269 422 161 364 213 b 467 379 364 315 407 363 z "},"'":{"ha":489,"x_min":0,"x_max":0,"o":"m 118 1003 l 160 586 l 329 586 l 371 1003 z "},"(":{"ha":539,"x_min":0,"x_max":0,"o":"m 251 1003 b 92 400 160 807 92 560 b 251 -203 92 235 172 -22 l 510 -203 b 400 407 446 -11 400 261 b 508 1003 400 558 435 753 z "},")":{"ha":539,"x_min":0,"x_max":0,"o":"m 31 1003 b 140 390 104 772 140 525 b 32 -203 140 250 108 58 l 289 -203 b 449 399 381 -8 449 239 b 289 1003 449 581 358 842 z "},"*":{"ha":539,"x_min":0,"x_max":0,"o":"m 106 964 l 167 856 l 44 856 l 44 743 l 167 743 l 106 635 l 207 579 l 268 686 l 326 579 l 429 633 l 367 743 l 492 743 l 492 856 l 367 856 l 429 963 l 326 1021 l 268 913 l 207 1022 z "},"+":{"ha":833,"x_min":0,"x_max":0,"o":"m 322 703 l 322 446 l 65 446 l 65 257 l 322 257 l 322 0 l 511 0 l 511 257 l 768 257 l 768 446 l 511 446 l 511 703 z "},",":{"ha":489,"x_min":0,"x_max":0,"o":"m 104 293 l 14 -135 l 297 -135 l 446 293 z "},"-":{"ha":565,"x_min":0,"x_max":0,"o":"m 40 485 l 40 253 l 525 253 l 525 485 z "},".":{"ha":489,"x_min":0,"x_max":0,"o":"m 75 289 l 75 0 l 413 0 l 413 289 z "},"/":{"ha":514,"x_min":0,"x_max":0,"o":"m 335 1003 l -29 -19 l 182 -19 l 543 1003 z "},":":{"ha":489,"x_min":0,"x_max":0,"o":"m 76 717 l 76 428 l 414 428 l 414 717 z m 76 289 l 76 0 l 414 0 l 414 289 z "},";":{"ha":489,"x_min":0,"x_max":0,"o":"m 100 717 l 100 428 l 435 428 l 435 717 z m 100 293 l 13 -135 l 297 -135 l 443 293 z "},"<":{"ha":833,"x_min":0,"x_max":0,"o":"m 775 747 l 60 464 l 60 238 l 775 -46 l 775 186 l 300 350 l 775 517 z "},"=":{"ha":833,"x_min":0,"x_max":0,"o":"m 58 615 l 58 410 l 775 410 l 775 615 z m 58 294 l 58 88 l 775 88 l 775 294 z "},">":{"ha":833,"x_min":0,"x_max":0,"o":"m 60 517 l 536 350 l 60 186 l 60 -46 l 775 238 l 775 464 l 60 747 z "},"?":{"ha":746,"x_min":0,"x_max":0,"o":"m 718 744 b 336 1029 718 928 574 1029 b 42 983 247 1029 146 1013 l 42 721 b 224 756 118 743 178 756 b 324 690 292 756 324 735 b 238 567 324 657 300 621 b 135 428 178 513 149 486 b 126 289 126 394 126 353 l 454 289 b 526 469 454 388 465 425 b 718 744 676 576 718 650 z m 129 228 l 129 0 l 463 0 l 463 228 z "},"@":{"ha":1267,"x_min":0,"x_max":0,"o":"m 1239 546 b 635 1029 1239 833 1004 1029 b 28 424 293 1029 28 753 b 621 -182 28 88 275 -182 b 1065 -35 826 -182 951 -143 l 979 78 b 636 -26 879 -4 785 -26 b 206 422 400 -26 206 168 b 657 874 206 681 397 874 b 1069 497 913 874 1069 736 b 950 267 1069 343 1010 267 b 908 325 921 267 908 288 b 918 399 908 354 917 381 l 985 724 l 818 724 l 803 656 b 642 740 760 718 721 740 b 326 349 453 740 326 572 b 529 104 326 186 396 104 b 689 172 604 104 647 132 b 724 208 701 185 713 194 b 726 167 724 192 724 179 b 833 104 738 122 772 104 b 1161 268 951 104 1083 158 b 1239 546 1211 339 1239 433 z m 617 253 b 543 353 567 253 543 288 b 688 592 543 460 596 592 b 761 493 736 592 761 558 b 617 253 761 382 704 253 z "},"A":{"ha":1106,"x_min":0,"x_max":0,"o":"m 296 1003 l -26 0 l 351 0 l 392 161 l 681 161 l 719 0 l 1133 0 l 811 1003 z m 540 781 l 622 406 l 451 406 z "},"B":{"ha":1053,"x_min":0,"x_max":0,"o":"m 74 1003 l 74 0 l 621 0 b 950 107 789 0 892 40 b 1019 286 990 154 1019 206 b 800 524 1019 413 943 501 b 989 744 939 564 989 626 b 660 1003 989 913 871 1003 z m 443 789 l 483 789 b 617 697 571 789 617 764 b 485 600 617 635 576 600 l 443 600 z m 443 413 l 490 413 b 635 314 585 413 635 383 b 499 211 635 236 579 211 l 443 211 z "},"C":{"ha":1053,"x_min":0,"x_max":0,"o":"m 1015 624 b 547 1024 1015 883 847 1024 b 33 501 222 1024 33 831 b 546 -26 33 167 219 -26 b 1022 369 838 -26 1022 118 l 650 369 b 557 236 644 274 617 236 b 446 489 464 236 446 325 b 556 758 446 624 446 758 b 650 624 615 758 642 722 z "},"D":{"ha":1106,"x_min":0,"x_max":0,"o":"m 68 1003 l 68 0 l 563 0 b 1075 508 882 0 1075 182 b 886 921 1075 674 1010 844 b 531 1003 790 979 690 1003 z m 460 775 l 499 775 b 663 514 646 775 663 658 b 640 321 663 426 657 364 b 488 231 611 246 549 231 l 460 231 z "},"E":{"ha":875,"x_min":0,"x_max":0,"o":"m 71 1003 l 71 0 l 846 0 l 846 261 l 453 261 l 453 374 l 804 374 l 804 633 l 453 633 l 453 742 l 833 742 l 833 1003 z "},"F":{"ha":847,"x_min":0,"x_max":0,"o":"m 68 1003 l 68 0 l 463 0 l 463 367 l 810 367 l 810 624 l 463 624 l 463 742 l 836 742 l 836 1003 z "},"G":{"ha":1131,"x_min":0,"x_max":0,"o":"m 1054 685 b 590 1024 1054 911 917 1024 b 38 497 240 1024 38 832 b 579 -29 38 158 231 -29 b 1074 39 728 -29 907 -6 l 1074 569 l 556 569 l 556 369 l 692 369 l 692 244 b 583 224 663 232 618 224 b 442 450 489 224 442 271 l 442 501 b 588 767 442 714 490 767 b 685 685 647 767 683 736 z "},"H":{"ha":1106,"x_min":0,"x_max":0,"o":"m 72 1003 l 72 0 l 469 0 l 469 369 l 636 369 l 636 0 l 1033 0 l 1033 1003 l 636 1003 l 636 660 l 469 660 l 469 1003 z "},"I":{"ha":539,"x_min":0,"x_max":0,"o":"m 71 1003 l 71 0 l 467 0 l 467 1003 z "},"J":{"ha":925,"x_min":0,"x_max":0,"o":"m 465 1003 l 465 340 b 396 233 465 263 442 233 b 332 311 354 233 332 263 b 333 331 332 317 332 324 l -3 331 l -3 289 b 418 -29 -3 111 136 -29 b 810 129 597 -29 740 31 b 861 360 844 178 861 256 l 861 1003 z "},"K":{"ha":1106,"x_min":0,"x_max":0,"o":"m 74 1003 l 74 0 l 463 0 l 463 450 l 697 0 l 1126 0 l 821 531 l 1089 1003 l 672 1003 l 463 572 l 463 1003 z "},"L":{"ha":847,"x_min":0,"x_max":0,"o":"m 71 1003 l 71 0 l 833 0 l 833 269 l 469 269 l 469 1003 z "},"M":{"ha":1467,"x_min":0,"x_max":0,"o":"m 76 1003 l 76 0 l 404 0 l 404 719 l 556 0 l 913 0 l 1064 719 l 1064 0 l 1392 0 l 1392 1003 l 850 1003 l 735 406 l 632 1003 z "},"N":{"ha":1156,"x_min":0,"x_max":0,"o":"m 71 1003 l 71 0 l 392 0 l 392 614 l 608 0 l 1083 0 l 1083 1003 l 763 1003 l 763 399 l 556 1003 z "},"O":{"ha":1106,"x_min":0,"x_max":0,"o":"m 1071 501 b 564 1029 1071 836 882 1029 b 35 494 231 1029 35 833 b 551 -29 35 169 232 -29 b 1071 501 872 -29 1071 172 z m 549 236 b 444 492 475 236 444 307 b 557 765 444 706 479 765 b 658 501 640 765 658 700 b 549 236 658 329 639 236 z "},"P":{"ha":1028,"x_min":0,"x_max":0,"o":"m 71 1003 l 71 0 l 469 0 l 469 338 l 615 338 b 874 400 721 338 808 356 b 1011 674 963 460 1011 558 b 867 951 1011 788 965 892 b 643 1003 810 985 736 1003 z m 469 779 l 511 779 b 629 679 588 779 629 746 b 500 565 629 600 582 565 l 469 565 z "},"Q":{"ha":1106,"x_min":0,"x_max":0,"o":"m 1071 501 b 564 1029 1071 836 882 1029 b 35 494 231 1029 35 833 b 551 -29 35 169 232 -29 b 749 -6 668 -29 674 -11 b 892 0 783 -3 840 0 l 1104 0 l 1104 244 l 1021 244 b 1071 501 1054 318 1071 406 z m 549 236 b 444 492 475 236 444 307 b 556 765 444 706 481 765 b 646 686 599 765 631 747 b 658 500 656 646 658 583 b 549 236 658 311 632 236 z "},"R":{"ha":1053,"x_min":0,"x_max":0,"o":"m 68 1003 l 68 0 l 460 0 l 460 361 l 497 361 b 610 249 583 361 596 339 b 635 83 618 194 625 138 b 653 0 640 56 646 26 l 1042 0 b 1007 161 1028 40 1015 99 l 989 310 b 807 508 972 442 946 485 b 1004 746 947 550 1004 618 b 918 942 1004 832 974 899 b 672 1003 860 986 758 1003 z m 457 778 l 488 778 b 625 689 588 778 625 753 b 482 583 625 615 582 583 l 457 583 z "},"S":{"ha":1003,"x_min":0,"x_max":0,"o":"m 944 721 b 511 1029 944 925 797 1029 b 46 699 211 1029 46 910 b 300 421 46 514 176 457 l 525 356 b 604 282 581 339 604 315 b 508 197 604 233 564 197 b 406 313 435 197 406 226 l 28 313 b 493 -29 28 85 193 -29 b 865 74 676 -29 785 10 b 975 319 940 133 975 213 b 708 618 975 503 851 581 l 549 660 b 469 681 515 668 489 674 b 411 742 424 697 411 718 b 503 808 411 782 447 808 b 590 721 565 808 586 788 z "},"T":{"ha":900,"x_min":0,"x_max":0,"o":"m 4 1003 l 4 732 l 250 732 l 250 0 l 649 0 l 649 732 l 896 732 l 896 1003 z "},"U":{"ha":1081,"x_min":0,"x_max":0,"o":"m 64 1003 l 64 331 b 94 174 64 271 74 218 b 528 -29 160 36 321 -29 b 963 140 726 -29 889 35 b 1018 368 1000 193 1018 269 l 1018 1003 l 628 1003 l 628 347 b 544 244 628 286 599 244 b 463 351 488 244 463 285 l 463 1003 z "},"V":{"ha":1054,"x_min":0,"x_max":0,"o":"m -12 1003 l 271 0 l 785 0 l 1068 1003 l 685 1003 l 535 222 l 394 1003 z "},"W":{"ha":1439,"x_min":0,"x_max":0,"o":"m -19 1003 l 193 0 l 628 0 l 724 650 l 818 0 l 1247 0 l 1460 1003 l 1113 1003 l 1024 371 l 931 1003 l 517 1003 l 422 371 l 336 1003 z "},"X":{"ha":1081,"x_min":0,"x_max":0,"o":"m 3 1003 l 307 513 l -19 0 l 378 0 l 533 306 l 683 0 l 1100 0 l 779 513 l 1089 1003 l 688 1003 l 553 721 l 419 1003 z "},"Y":{"ha":1028,"x_min":0,"x_max":0,"o":"m -25 1003 l 317 347 l 317 0 l 713 0 l 713 347 l 1053 1003 l 669 1003 l 529 582 l 386 1003 z "},"Z":{"ha":951,"x_min":0,"x_max":0,"o":"m 44 1003 l 44 742 l 450 742 l 32 242 l 32 0 l 919 0 l 919 261 l 492 261 l 910 763 l 910 1003 z "},"[":{"ha":668,"x_min":0,"x_max":0,"o":"m 113 1003 l 113 -203 l 621 -203 l 621 19 l 406 19 l 406 778 l 621 778 l 621 1003 z "},"\\":{"ha":514,"x_min":0,"x_max":0,"o":"m -29 1003 l 332 -19 l 543 -19 l 179 1003 z "},"]":{"ha":668,"x_min":0,"x_max":0,"o":"m 49 1003 l 49 778 l 264 778 l 264 19 l 49 19 l 49 -203 l 556 -203 l 556 1003 z "},"^":{"ha":833,"x_min":0,"x_max":0,"o":"m 318 1003 l 90 499 l 285 499 l 417 808 l 549 499 l 743 499 l 515 1003 z "},"_":{"ha":694,"x_min":0,"x_max":0,"o":"m 0 -104 l 0 -174 l 694 -174 l 694 -104 z "},"`":{"ha":386,"x_min":0,"x_max":0,"o":"m -110 1003 l 104 767 l 350 767 l 217 1003 z "},"a":{"ha":822,"x_min":0,"x_max":0,"o":"m 768 474 b 724 624 768 538 754 588 b 410 713 665 693 529 713 b 179 674 310 713 235 700 b 56 489 93 633 57 561 l 332 489 b 397 556 333 538 353 556 b 461 500 442 556 461 539 l 461 440 b 411 442 439 442 422 442 b 21 196 143 442 21 353 b 265 -18 21 61 111 -18 b 468 74 358 -18 418 13 l 474 0 l 768 0 z m 388 160 b 311 226 338 160 311 183 b 433 313 311 288 357 313 b 465 310 438 313 449 311 l 465 269 b 388 160 465 199 447 160 z "},"b":{"ha":925,"x_min":0,"x_max":0,"o":"m 54 1003 l 54 0 l 371 0 l 382 81 b 589 -22 436 10 499 -22 b 885 360 774 -22 885 121 b 600 718 885 582 778 718 b 396 633 518 718 453 696 l 396 1003 z m 542 331 b 463 178 540 219 519 178 b 389 303 411 178 389 213 l 389 379 b 464 518 389 481 410 518 b 542 375 507 518 542 497 z "},"c":{"ha":875,"x_min":0,"x_max":0,"o":"m 838 418 b 451 718 838 608 692 718 b 36 350 199 718 36 583 b 451 -21 36 107 172 -21 b 843 279 713 -21 843 90 l 843 286 l 528 286 b 454 153 528 196 504 153 b 374 285 399 153 374 186 l 374 375 b 454 542 374 488 393 542 b 528 418 508 542 526 507 z "},"d":{"ha":925,"x_min":0,"x_max":0,"o":"m 528 1003 l 528 633 b 321 718 471 696 404 718 b 39 360 144 718 39 582 b 333 -22 39 119 150 -22 b 540 81 424 -22 489 10 l 551 0 l 868 0 l 868 1003 z m 461 178 b 381 335 403 178 381 221 l 381 385 b 457 518 381 483 410 518 b 533 385 524 518 533 453 l 533 293 b 461 178 533 219 513 178 z "},"e":{"ha":875,"x_min":0,"x_max":0,"o":"m 840 325 b 460 722 840 590 711 722 b 35 354 188 722 35 594 b 433 -22 35 108 174 -22 b 783 110 615 -22 724 22 b 831 228 814 154 829 193 l 539 228 b 451 147 532 174 500 147 b 358 258 389 147 358 182 l 358 289 l 840 289 z m 358 438 b 450 553 358 525 390 553 b 539 438 513 553 539 524 z "},"f":{"ha":539,"x_min":0,"x_max":0,"o":"m 553 993 b 369 1014 488 1006 407 1014 b 129 913 274 1014 178 979 b 85 744 99 871 85 810 l 85 694 l 3 694 l 3 489 l 85 489 l 85 0 l 417 0 l 417 489 l 540 489 l 540 694 l 417 694 l 417 736 b 486 800 417 781 431 800 b 553 797 503 800 531 799 z "},"g":{"ha":925,"x_min":0,"x_max":0,"o":"m 543 621 b 340 713 499 683 433 713 b 38 351 150 713 38 569 b 342 13 38 140 151 13 b 553 103 440 13 510 43 l 553 51 b 543 -53 553 -1 550 -29 b 468 -101 529 -97 496 -101 b 397 -44 424 -101 399 -82 l 69 -44 b 439 -283 75 -200 194 -283 b 778 -194 610 -283 715 -250 b 868 67 851 -128 868 -43 l 868 694 l 554 694 z m 539 347 b 457 201 539 268 535 201 b 385 324 392 201 385 254 l 385 360 b 463 517 385 481 413 517 b 539 385 532 517 539 443 z "},"h":{"ha":900,"x_min":0,"x_max":0,"o":"m 51 1003 l 51 0 l 390 0 l 390 419 b 453 508 390 475 408 508 b 514 431 496 508 514 476 l 514 0 l 850 0 l 850 442 b 607 717 850 636 772 717 b 390 601 503 717 439 683 l 390 1003 z "},"i":{"ha":436,"x_min":0,"x_max":0,"o":"m 53 1003 l 53 790 l 383 790 l 383 1003 z m 53 694 l 53 0 l 383 0 l 383 694 z "},"j":{"ha":436,"x_min":0,"x_max":0,"o":"m 51 1003 l 51 790 l 382 790 l 382 1003 z m 51 694 l 51 15 b 25 -78 51 -26 46 -60 b -35 -92 13 -89 -11 -92 b -69 -90 -43 -92 -54 -92 l -69 -265 b 56 -269 -32 -268 0 -269 b 324 -206 217 -269 276 -249 b 382 -22 367 -167 382 -111 l 382 694 z "},"k":{"ha":875,"x_min":0,"x_max":0,"o":"m 49 1003 l 49 0 l 382 0 l 382 364 l 524 0 l 890 0 l 682 399 l 875 694 l 513 694 l 382 428 l 382 1003 z "},"l":{"ha":436,"x_min":0,"x_max":0,"o":"m 53 1003 l 53 0 l 383 0 l 383 1003 z "},"m":{"ha":1361,"x_min":0,"x_max":0,"o":"m 839 583 b 611 717 793 676 726 717 b 385 592 503 717 442 685 l 378 694 l 54 694 l 54 0 l 393 0 l 393 424 b 456 508 393 479 413 508 b 517 431 499 508 517 476 l 517 0 l 853 0 l 853 419 b 917 508 853 475 876 508 b 976 433 957 508 976 478 l 976 0 l 1308 0 l 1308 482 b 1068 717 1308 626 1224 717 b 839 583 961 717 889 674 z "},"n":{"ha":900,"x_min":0,"x_max":0,"o":"m 850 432 b 828 593 850 497 844 553 b 607 717 789 688 696 717 b 382 592 500 717 432 679 l 375 694 l 51 694 l 51 0 l 390 0 l 390 425 b 453 508 390 475 410 508 b 514 429 496 508 514 475 l 514 0 l 850 0 z "},"o":{"ha":925,"x_min":0,"x_max":0,"o":"m 889 350 b 454 724 889 590 731 724 b 35 349 193 724 35 586 b 442 -22 35 115 192 -22 b 889 350 740 -22 889 106 z m 461 163 b 388 328 417 163 388 185 l 388 385 b 463 538 388 494 417 538 b 540 372 517 538 540 489 l 540 336 b 461 163 540 200 510 163 z "},"p":{"ha":925,"x_min":0,"x_max":0,"o":"m 885 335 b 589 717 885 574 774 717 b 382 614 499 717 436 685 l 371 694 l 54 694 l 54 -267 l 396 -267 l 396 61 b 601 -24 450 1 508 -24 b 885 335 778 -24 885 113 z m 465 176 b 389 328 426 176 389 193 l 389 372 b 461 517 389 507 424 517 b 542 347 519 517 542 474 b 531 226 542 290 539 251 b 465 176 517 183 488 176 z "},"q":{"ha":925,"x_min":0,"x_max":0,"o":"m 540 614 b 333 717 486 685 424 717 b 39 335 150 717 39 575 b 322 -24 39 113 144 -24 b 528 61 410 -24 472 0 l 528 -267 l 868 -267 l 868 694 l 551 694 z m 381 336 b 414 500 381 447 393 479 b 461 517 426 513 440 517 b 533 390 515 517 533 479 l 533 299 b 457 176 533 219 514 176 b 393 222 428 176 406 188 b 381 336 385 247 381 272 z "},"r":{"ha":617,"x_min":0,"x_max":0,"o":"m 614 685 b 525 704 592 696 551 704 b 382 621 479 704 433 678 l 375 694 l 51 694 l 51 0 l 392 0 l 392 343 b 489 443 392 408 417 443 b 553 438 510 443 539 440 l 614 425 z "},"s":{"ha":822,"x_min":0,"x_max":0,"o":"m 769 486 b 413 721 769 642 647 721 b 43 479 167 721 43 636 b 321 267 43 351 128 290 b 485 193 447 251 485 238 b 414 131 485 153 463 131 b 338 225 363 131 338 158 l 31 225 l 31 219 b 393 -26 31 72 133 -26 b 719 56 564 -26 653 -1 b 790 221 765 94 790 149 b 710 382 790 301 760 353 b 535 438 664 408 603 425 b 342 511 386 463 342 463 b 410 565 342 549 365 565 b 481 486 463 565 481 543 z "},"t":{"ha":592,"x_min":0,"x_max":0,"o":"m 428 926 l 99 810 l 99 694 l 7 694 l 7 489 l 100 489 l 100 194 b 161 31 100 97 122 64 b 353 -22 206 -8 289 -22 b 572 7 425 -22 499 -10 l 572 213 b 486 201 543 206 507 201 b 428 279 440 201 428 228 l 428 489 l 585 489 l 585 694 l 428 694 z "},"u":{"ha":900,"x_min":0,"x_max":0,"o":"m 50 694 l 50 261 b 74 99 50 199 54 143 b 293 -22 108 21 181 -22 b 518 103 397 -22 467 14 l 525 0 l 849 0 l 849 694 l 510 694 l 510 271 b 447 186 510 217 492 186 b 386 264 404 186 386 218 l 386 694 z "},"v":{"ha":875,"x_min":0,"x_max":0,"o":"m 0 694 l 210 0 l 668 0 l 875 694 l 532 694 l 440 265 l 347 694 z "},"w":{"ha":1311,"x_min":0,"x_max":0,"o":"m -3 694 l 149 0 l 560 0 l 642 443 l 731 0 l 1139 0 l 1314 694 l 989 694 l 915 242 l 833 694 l 465 694 l 379 242 l 318 694 z "},"x":{"ha":875,"x_min":0,"x_max":0,"o":"m 3 694 l 194 371 l -18 0 l 353 0 l 438 208 l 540 0 l 893 0 l 678 371 l 854 694 l 497 694 l 433 511 l 361 694 z "},"y":{"ha":875,"x_min":0,"x_max":0,"o":"m -4 694 l 279 -21 l 188 -267 l 550 -267 l 881 694 l 546 694 l 451 314 l 354 694 z "},"z":{"ha":744,"x_min":0,"x_max":0,"o":"m 54 694 l 54 472 l 278 472 l 35 193 l 35 0 l 711 0 l 711 225 l 467 225 l 688 476 l 688 694 z "},"{":{"ha":668,"x_min":0,"x_max":0,"o":"m 378 1003 b 182 824 258 1003 182 922 l 182 590 b 58 515 182 542 147 515 l 51 515 l 51 288 l 64 288 b 182 213 143 288 182 261 l 182 -25 b 374 -203 182 -122 261 -203 l 606 -203 l 606 19 l 553 19 b 476 104 496 19 476 50 l 476 274 b 321 400 476 339 428 383 l 321 403 b 476 528 425 415 476 465 l 476 699 b 557 778 476 749 497 778 l 606 778 l 606 1003 z "},"|":{"ha":308,"x_min":0,"x_max":0,"o":"m 46 1029 l 46 -26 l 263 -26 l 263 1029 z "},"}":{"ha":668,"x_min":0,"x_max":0,"o":"m 63 1003 l 63 778 l 115 778 b 192 699 172 778 192 746 l 192 528 b 347 403 192 465 243 417 l 347 400 b 192 276 235 383 192 333 l 192 100 b 114 19 192 46 169 19 l 63 19 l 63 -203 l 297 -203 b 486 -29 410 -203 486 -119 l 486 213 b 617 288 486 261 519 288 l 617 515 b 486 590 522 515 486 540 l 486 825 b 292 1003 486 922 410 1003 z "},"~":{"ha":833,"x_min":0,"x_max":0,"o":"m 667 497 b 596 421 658 440 639 421 b 472 446 563 421 519 429 b 238 503 376 478 283 503 b 24 206 115 503 26 354 l 165 206 b 238 279 171 249 192 279 b 431 231 288 279 356 251 b 597 196 501 210 569 196 b 808 497 714 196 794 315 z "}," ":{"ha":489,"x_min":0,"x_max":0,"o":""},"À":{"ha":1106,"x_min":0,"x_max":0,"o":"m 296 1003 l -26 0 l 351 0 l 392 161 l 681 161 l 719 0 l 1133 0 l 811 1003 z m 540 781 l 622 406 l 451 406 z m 251 1308 l 465 1072 l 710 1072 l 574 1308 z "},"Á":{"ha":1106,"x_min":0,"x_max":0,"o":"m 296 1003 l -26 0 l 351 0 l 392 161 l 681 161 l 719 0 l 1133 0 l 811 1003 z m 540 781 l 622 406 l 451 406 z m 518 1308 l 382 1072 l 626 1072 l 840 1308 z "},"Â":{"ha":1106,"x_min":0,"x_max":0,"o":"m 296 1003 l -26 0 l 351 0 l 392 161 l 681 161 l 719 0 l 1133 0 l 811 1003 z m 540 781 l 622 406 l 451 406 z m 388 1308 l 229 1072 l 482 1072 l 543 1178 l 604 1072 l 857 1072 l 699 1308 z "},"Ã":{"ha":1106,"x_min":0,"x_max":0,"o":"m 296 1003 l -26 0 l 351 0 l 392 161 l 681 161 l 719 0 l 1133 0 l 811 1003 z m 540 781 l 622 406 l 451 406 z m 671 1300 b 639 1261 669 1272 656 1261 b 532 1289 611 1261 579 1276 b 418 1308 492 1300 449 1308 b 243 1104 308 1308 243 1225 l 243 1081 l 415 1081 b 442 1119 415 1107 426 1119 b 531 1097 471 1119 503 1104 b 650 1072 569 1088 610 1072 b 843 1300 779 1072 843 1143 z "},"Ä":{"ha":1106,"x_min":0,"x_max":0,"o":"m 296 1003 l -26 0 l 351 0 l 392 161 l 681 161 l 719 0 l 1133 0 l 811 1003 z m 540 781 l 622 406 l 451 406 z m 263 1308 l 263 1072 l 490 1072 l 490 1308 z m 596 1308 l 596 1072 l 824 1072 l 824 1308 z "},"Ā":{"ha":1106,"x_min":0,"x_max":0,"o":"m 296 1003 l -26 0 l 351 0 l 392 161 l 681 161 l 719 0 l 1133 0 l 811 1003 z m 540 781 l 622 406 l 451 406 z m 246 1276 l 246 1113 l 840 1113 l 840 1276 z "},"Ă":{"ha":1106,"x_min":0,"x_max":0,"o":"m 296 1003 l -26 0 l 351 0 l 392 161 l 681 161 l 719 0 l 1133 0 l 811 1003 z m 540 781 l 622 406 l 451 406 z m 269 1308 b 543 1064 286 1151 383 1064 b 817 1308 704 1064 800 1153 l 611 1308 b 543 1228 607 1253 578 1228 b 475 1308 506 1228 476 1258 z "},"Å":{"ha":1106,"x_min":0,"x_max":0,"o":"m 296 1003 l -26 0 l 351 0 l 392 161 l 681 161 l 719 0 l 1133 0 l 811 1003 z m 540 781 l 622 406 l 451 406 z m 725 1231 b 543 1413 725 1329 642 1413 b 361 1231 446 1413 361 1332 b 543 1049 361 1132 444 1049 b 725 1231 644 1049 725 1133 z m 543 1171 b 483 1231 510 1171 483 1197 b 543 1290 483 1264 510 1290 b 603 1231 576 1290 603 1264 b 543 1171 603 1197 576 1171 z "},"Ǻ":{"ha":1106,"x_min":0,"x_max":0,"o":"m 582 1413 l 446 1247 l 653 1247 l 871 1413 z m 736 1017 b 554 1203 736 1122 654 1203 b 372 1026 461 1203 372 1125 l 372 1003 l 294 1003 l -26 0 l 354 0 l 394 161 l 682 161 l 721 0 l 1132 0 l 810 1003 l 735 1003 b 736 1017 736 1008 736 1015 z m 554 961 b 494 1021 521 961 494 988 b 553 1081 494 1054 521 1081 b 614 1021 588 1081 614 1054 b 554 961 614 988 588 961 z m 544 783 l 624 406 l 454 406 l 542 783 z "},"Ą":{"ha":1106,"x_min":0,"x_max":0,"o":"m 296 1003 l -26 0 l 351 0 l 392 161 l 681 161 l 719 0 l 911 0 b 725 -200 789 -49 725 -121 b 908 -322 725 -285 782 -322 b 1078 -299 958 -322 1026 -314 l 1054 -204 b 971 -219 1025 -215 994 -219 b 897 -158 922 -219 897 -196 b 1050 0 897 -110 949 -60 l 1133 0 l 811 1003 z m 540 781 l 622 406 l 451 406 z "},"Æ":{"ha":1389,"x_min":0,"x_max":0,"o":"m 393 1003 l -31 0 l 343 0 l 401 161 l 696 161 l 713 0 l 1363 0 l 1363 257 l 1051 257 l 1039 376 l 1328 376 l 1328 626 l 1010 626 l 1000 739 l 1354 739 l 1354 1003 z m 633 793 l 668 406 l 492 406 z "},"Ǽ":{"ha":1389,"x_min":0,"x_max":0,"o":"m 393 1003 l -31 0 l 343 0 l 401 161 l 696 161 l 713 0 l 1363 0 l 1363 257 l 1051 257 l 1039 376 l 1328 376 l 1328 626 l 1010 626 l 1000 739 l 1354 739 l 1354 1003 z m 633 793 l 668 406 l 492 406 z m 685 1308 l 549 1072 l 793 1072 l 1007 1308 z "},"Ć":{"ha":1053,"x_min":0,"x_max":0,"o":"m 1015 624 b 547 1024 1015 883 847 1024 b 33 501 222 1024 33 831 b 546 -26 33 167 219 -26 b 1022 369 838 -26 1022 118 l 650 369 b 557 236 644 274 617 236 b 446 489 464 236 446 325 b 556 758 446 624 446 758 b 650 624 615 758 642 722 z m 528 1308 l 392 1072 l 636 1072 l 850 1308 z "},"Ĉ":{"ha":1053,"x_min":0,"x_max":0,"o":"m 1015 624 b 547 1024 1015 883 847 1024 b 33 501 222 1024 33 831 b 546 -26 33 167 219 -26 b 1022 369 838 -26 1022 118 l 650 369 b 557 236 644 274 617 236 b 446 489 464 236 446 325 b 556 758 446 624 446 758 b 650 624 615 758 642 722 z m 401 1308 l 243 1072 l 496 1072 l 557 1178 l 618 1072 l 871 1072 l 713 1308 z "},"Č":{"ha":1053,"x_min":0,"x_max":0,"o":"m 1015 624 b 547 1024 1015 883 847 1024 b 33 501 222 1024 33 831 b 546 -26 33 167 219 -26 b 1022 369 838 -26 1022 118 l 650 369 b 557 236 644 274 617 236 b 446 489 464 236 446 325 b 556 758 446 624 446 758 b 650 624 615 758 642 722 z m 243 1308 l 401 1072 l 713 1072 l 871 1308 l 618 1308 l 557 1203 l 496 1308 z "},"Ċ":{"ha":1053,"x_min":0,"x_max":0,"o":"m 1015 624 b 547 1024 1015 883 847 1024 b 33 501 222 1024 33 831 b 546 -26 33 167 219 -26 b 1022 369 838 -26 1022 118 l 650 369 b 557 236 644 274 617 236 b 446 489 464 236 446 325 b 556 758 446 624 446 758 b 650 624 615 758 642 722 z m 443 1308 l 443 1072 l 671 1072 l 671 1308 z "},"Ç":{"ha":1053,"x_min":0,"x_max":0,"o":"m 1015 624 b 547 1024 1015 881 847 1024 b 33 501 222 1024 33 831 b 468 -22 33 194 190 6 l 410 -128 l 463 -169 b 506 -160 479 -164 494 -160 b 561 -197 535 -160 561 -175 b 489 -244 561 -224 528 -244 b 365 -211 454 -244 410 -232 l 328 -300 b 521 -339 376 -324 449 -339 b 725 -192 644 -339 725 -279 b 593 -74 725 -124 671 -74 b 550 -78 575 -74 557 -76 l 579 -25 b 1022 369 858 -14 1022 132 l 650 369 b 557 236 644 274 617 236 b 467 300 525 236 488 246 b 446 503 451 340 446 403 b 463 685 446 589 450 646 b 556 758 482 743 517 758 b 650 624 615 758 642 722 z "},"Ď":{"ha":1106,"x_min":0,"x_max":0,"o":"m 68 1003 l 68 0 l 563 0 b 1075 508 882 0 1075 182 b 886 921 1075 674 1010 844 b 531 1003 790 979 690 1003 z m 460 775 l 499 775 b 663 514 646 775 663 658 b 640 321 663 426 657 364 b 488 231 611 246 549 231 l 460 231 z m 146 1308 l 304 1072 l 615 1072 l 774 1308 l 521 1308 l 460 1203 l 399 1308 z "},"Đ":{"ha":1106,"x_min":0,"x_max":0,"o":"m 68 1003 l 68 594 l -10 594 l -10 425 l 68 425 l 68 0 l 563 0 b 961 154 726 0 872 51 b 1075 508 1035 239 1075 360 b 865 933 1075 706 997 857 b 531 1003 775 986 661 1003 z m 460 594 l 460 775 l 486 775 b 663 539 640 775 663 676 l 663 482 b 481 231 663 271 596 231 l 460 231 l 460 425 l 574 425 l 574 594 z "},"Ð":{"ha":1106,"x_min":0,"x_max":0,"o":"m 68 1003 l 68 594 l -10 594 l -10 425 l 68 425 l 68 0 l 563 0 b 961 154 726 0 872 51 b 1075 508 1035 239 1075 360 b 865 933 1075 706 997 857 b 531 1003 775 986 661 1003 z m 460 594 l 460 775 l 486 775 b 663 539 640 775 663 676 l 663 482 b 481 231 663 271 596 231 l 460 231 l 460 425 l 574 425 l 574 594 z "},"È":{"ha":875,"x_min":0,"x_max":0,"o":"m 71 1003 l 71 0 l 846 0 l 846 261 l 453 261 l 453 374 l 804 374 l 804 633 l 453 633 l 453 742 l 833 742 l 833 1003 z m 136 1308 l 350 1072 l 594 1072 l 458 1308 z "},"É":{"ha":875,"x_min":0,"x_max":0,"o":"m 71 1003 l 71 0 l 846 0 l 846 261 l 453 261 l 453 374 l 804 374 l 804 633 l 453 633 l 453 742 l 833 742 l 833 1003 z m 403 1308 l 267 1072 l 511 1072 l 725 1308 z "},"Ê":{"ha":875,"x_min":0,"x_max":0,"o":"m 71 1003 l 71 0 l 846 0 l 846 261 l 453 261 l 453 374 l 804 374 l 804 633 l 453 633 l 453 742 l 833 742 l 833 1003 z m 282 1308 l 124 1072 l 376 1072 l 438 1178 l 499 1072 l 751 1072 l 593 1308 z "},"Ě":{"ha":875,"x_min":0,"x_max":0,"o":"m 71 1003 l 71 0 l 846 0 l 846 261 l 453 261 l 453 374 l 804 374 l 804 633 l 453 633 l 453 742 l 833 742 l 833 1003 z m 124 1308 l 282 1072 l 593 1072 l 751 1308 l 499 1308 l 438 1203 l 376 1308 z "},"Ë":{"ha":875,"x_min":0,"x_max":0,"o":"m 71 1003 l 71 0 l 846 0 l 846 261 l 453 261 l 453 374 l 804 374 l 804 633 l 453 633 l 453 742 l 833 742 l 833 1003 z m 157 1308 l 157 1072 l 385 1072 l 385 1308 z m 490 1308 l 490 1072 l 718 1072 l 718 1308 z "},"Ē":{"ha":875,"x_min":0,"x_max":0,"o":"m 71 1003 l 71 0 l 846 0 l 846 261 l 453 261 l 453 374 l 804 374 l 804 633 l 453 633 l 453 742 l 833 742 l 833 1003 z m 140 1276 l 140 1113 l 735 1113 l 735 1276 z "},"Ĕ":{"ha":875,"x_min":0,"x_max":0,"o":"m 71 1003 l 71 0 l 846 0 l 846 261 l 453 261 l 453 374 l 804 374 l 804 633 l 453 633 l 453 742 l 833 742 l 833 1003 z m 164 1308 b 438 1064 181 1151 278 1064 b 711 1308 599 1064 694 1153 l 506 1308 b 438 1228 501 1253 472 1228 b 369 1308 400 1228 371 1258 z "},"Ė":{"ha":875,"x_min":0,"x_max":0,"o":"m 71 1003 l 71 0 l 846 0 l 846 261 l 453 261 l 453 374 l 804 374 l 804 633 l 453 633 l 453 742 l 833 742 l 833 1003 z m 324 1308 l 324 1072 l 551 1072 l 551 1308 z "},"Ę":{"ha":875,"x_min":0,"x_max":0,"o":"m 71 1003 l 71 0 l 679 0 b 493 -200 557 -49 493 -121 b 676 -322 493 -285 550 -322 b 846 -299 726 -322 794 -314 l 822 -204 b 739 -219 793 -215 763 -219 b 665 -158 690 -219 665 -196 b 818 0 665 -110 717 -60 l 846 0 l 846 261 l 453 261 l 453 374 l 804 374 l 804 633 l 453 633 l 453 742 l 833 742 l 833 1003 z "},"Ĝ":{"ha":1131,"x_min":0,"x_max":0,"o":"m 1054 685 b 590 1024 1054 911 917 1024 b 38 497 240 1024 38 832 b 579 -29 38 158 231 -29 b 1074 39 728 -29 907 -6 l 1074 569 l 556 569 l 556 369 l 692 369 l 692 244 b 583 224 663 232 618 224 b 442 450 489 224 442 271 l 442 501 b 588 767 442 714 490 767 b 685 685 647 767 683 736 z m 432 1308 l 274 1072 l 526 1072 l 588 1178 l 649 1072 l 901 1072 l 743 1308 z "},"Ğ":{"ha":1131,"x_min":0,"x_max":0,"o":"m 1054 685 b 590 1024 1054 911 917 1024 b 38 497 240 1024 38 832 b 579 -29 38 158 231 -29 b 1074 39 728 -29 907 -6 l 1074 569 l 556 569 l 556 369 l 692 369 l 692 244 b 583 224 663 232 618 224 b 442 450 489 224 442 271 l 442 501 b 588 767 442 714 490 767 b 685 685 647 767 683 736 z m 314 1308 b 588 1064 331 1151 428 1064 b 861 1308 749 1064 844 1153 l 656 1308 b 588 1228 651 1253 622 1228 b 519 1308 550 1228 521 1258 z "},"Ġ":{"ha":1131,"x_min":0,"x_max":0,"o":"m 1054 685 b 590 1024 1054 911 917 1024 b 38 497 240 1024 38 832 b 579 -29 38 158 231 -29 b 1074 39 728 -29 907 -6 l 1074 569 l 556 569 l 556 369 l 692 369 l 692 244 b 583 224 663 232 618 224 b 442 450 489 224 442 271 l 442 501 b 588 767 442 714 490 767 b 685 685 647 767 683 736 z m 474 1308 l 474 1072 l 701 1072 l 701 1308 z "},"Ģ":{"ha":1131,"x_min":0,"x_max":0,"o":"m 1054 685 b 590 1024 1054 911 917 1024 b 38 497 240 1024 38 832 b 579 -29 38 158 231 -29 b 1074 39 728 -29 907 -6 l 1074 569 l 556 569 l 556 369 l 692 369 l 692 244 b 583 224 663 232 618 224 b 442 450 489 224 442 271 l 442 501 b 588 767 442 714 490 767 b 685 685 647 767 683 736 z m 429 -69 l 357 -322 l 546 -322 l 742 -69 z "},"Ĥ":{"ha":1106,"x_min":0,"x_max":0,"o":"m 72 1003 l 72 0 l 469 0 l 469 369 l 636 369 l 636 0 l 1033 0 l 1033 1003 l 636 1003 l 636 660 l 469 660 l 469 1003 z m 393 1308 l 235 1072 l 488 1072 l 549 1178 l 610 1072 l 863 1072 l 704 1308 z "},"Ħ":{"ha":1106,"x_min":0,"x_max":0,"o":"m 72 1003 l 72 0 l 469 0 l 469 356 l 636 356 l 636 0 l 1033 0 l 1033 1003 l 636 1003 l 636 910 l 469 910 l 469 1003 z m 469 604 l 469 689 l 636 689 l 636 604 z "},"Ì":{"ha":539,"x_min":0,"x_max":0,"o":"m 71 1003 l 71 0 l 467 0 l 467 1003 z m -32 1308 l 182 1072 l 426 1072 l 290 1308 z "},"Í":{"ha":539,"x_min":0,"x_max":0,"o":"m 71 1003 l 71 0 l 467 0 l 467 1003 z m 235 1308 l 99 1072 l 343 1072 l 557 1308 z "},"Ĭ":{"ha":539,"x_min":0,"x_max":0,"o":"m 71 1003 l 71 0 l 467 0 l 467 1003 z m -1 1308 b 272 1064 15 1151 113 1064 b 546 1308 433 1064 529 1153 l 340 1308 b 272 1228 336 1253 307 1228 b 204 1308 235 1228 206 1258 z "},"Î":{"ha":539,"x_min":0,"x_max":0,"o":"m 71 1003 l 71 0 l 467 0 l 467 1003 z m 114 1308 l -44 1072 l 208 1072 l 269 1178 l 331 1072 l 583 1072 l 425 1308 z "},"Ĩ":{"ha":539,"x_min":0,"x_max":0,"o":"m 71 1003 l 71 0 l 467 0 l 467 1003 z m 397 1300 b 365 1261 396 1272 382 1261 b 258 1289 338 1261 306 1276 b 144 1308 218 1300 175 1308 b -31 1104 35 1308 -31 1225 l -31 1081 l 142 1081 b 168 1119 142 1107 153 1119 b 257 1097 197 1119 229 1104 b 376 1072 296 1088 336 1072 b 569 1300 506 1072 569 1143 z "},"Ï":{"ha":539,"x_min":0,"x_max":0,"o":"m 71 1003 l 71 0 l 467 0 l 467 1003 z m -11 1308 l -11 1072 l 217 1072 l 217 1308 z m 322 1308 l 322 1072 l 550 1072 l 550 1308 z "},"Ī":{"ha":539,"x_min":0,"x_max":0,"o":"m 71 1003 l 71 0 l 467 0 l 467 1003 z m -28 1276 l -28 1113 l 567 1113 l 567 1276 z "},"İ":{"ha":539,"x_min":0,"x_max":0,"o":"m 71 1003 l 71 0 l 467 0 l 467 1003 z m 156 1308 l 156 1072 l 383 1072 l 383 1308 z "},"Į":{"ha":539,"x_min":0,"x_max":0,"o":"m 71 1003 l 71 0 l 272 0 b 86 -200 150 -49 86 -121 b 269 -322 86 -285 143 -322 b 439 -299 319 -322 388 -314 l 415 -204 b 332 -219 386 -215 356 -219 b 258 -158 283 -219 258 -196 b 411 0 258 -110 310 -60 l 467 0 l 467 1003 z "},"Ĵ":{"ha":925,"x_min":0,"x_max":0,"o":"m 465 1003 l 465 340 b 396 233 465 263 442 233 b 332 311 354 233 332 263 b 333 331 332 317 332 324 l -3 331 l -3 289 b 418 -29 -3 111 136 -29 b 810 129 597 -29 740 31 b 861 360 844 178 861 256 l 861 1003 z m 501 1308 l 343 1072 l 596 1072 l 657 1178 l 718 1072 l 971 1072 l 813 1308 z "},"Ķ":{"ha":1106,"x_min":0,"x_max":0,"o":"m 74 1003 l 74 0 l 463 0 l 463 450 l 697 0 l 1126 0 l 821 531 l 1089 1003 l 672 1003 l 463 572 l 463 1003 z m 421 -69 l 349 -322 l 538 -322 l 733 -69 z "},"Ĺ":{"ha":847,"x_min":0,"x_max":0,"o":"m 71 1003 l 71 0 l 833 0 l 833 269 l 469 269 l 469 1003 z m 240 1308 l 104 1072 l 349 1072 l 563 1308 z "},"Ľ":{"ha":847,"x_min":0,"x_max":0,"o":"m 71 1003 l 71 0 l 833 0 l 833 269 l 469 269 l 469 1003 z m 575 1003 l 517 750 l 706 750 l 888 1003 z "},"Ļ":{"ha":847,"x_min":0,"x_max":0,"o":"m 71 1003 l 71 0 l 833 0 l 833 269 l 469 269 l 469 1003 z m 296 -69 l 224 -322 l 413 -322 l 608 -69 z "},"Ł":{"ha":847,"x_min":0,"x_max":0,"o":"m 71 1003 l 71 443 l 3 404 l 3 207 l 71 246 l 71 0 l 833 0 l 833 269 l 469 269 l 469 483 l 672 604 l 672 806 l 469 683 l 469 1003 z "},"Ŀ":{"ha":847,"x_min":0,"x_max":0,"o":"m 71 1003 l 71 0 l 833 0 l 833 269 l 469 269 l 469 1003 z m 581 669 l 581 433 l 808 433 l 808 669 z "},"Ń":{"ha":1156,"x_min":0,"x_max":0,"o":"m 71 1003 l 71 0 l 392 0 l 392 614 l 608 0 l 1083 0 l 1083 1003 l 763 1003 l 763 399 l 556 1003 z m 578 1308 l 442 1072 l 686 1072 l 900 1308 z "},"Ň":{"ha":1156,"x_min":0,"x_max":0,"o":"m 71 1003 l 71 0 l 392 0 l 392 614 l 608 0 l 1083 0 l 1083 1003 l 763 1003 l 763 399 l 556 1003 z m 265 1308 l 424 1072 l 735 1072 l 893 1308 l 640 1308 l 579 1203 l 518 1308 z "},"Ñ":{"ha":1156,"x_min":0,"x_max":0,"o":"m 71 1003 l 71 0 l 392 0 l 392 614 l 608 0 l 1083 0 l 1083 1003 l 763 1003 l 763 399 l 556 1003 z m 707 1300 b 675 1261 706 1272 692 1261 b 568 1289 647 1261 615 1276 b 454 1308 528 1300 485 1308 b 279 1104 344 1308 279 1225 l 279 1081 l 451 1081 b 478 1119 451 1107 463 1119 b 567 1097 507 1119 539 1104 b 686 1072 606 1088 646 1072 b 879 1300 815 1072 879 1143 z "},"Ņ":{"ha":1156,"x_min":0,"x_max":0,"o":"m 71 1003 l 71 0 l 392 0 l 392 614 l 608 0 l 1083 0 l 1083 1003 l 763 1003 l 763 399 l 556 1003 z m 419 -69 l 347 -322 l 536 -322 l 732 -69 z "},"Ò":{"ha":1106,"x_min":0,"x_max":0,"o":"m 1071 501 b 564 1029 1071 836 882 1029 b 35 494 231 1029 35 833 b 551 -29 35 169 232 -29 b 1071 501 872 -29 1071 172 z m 549 236 b 444 492 475 236 444 307 b 557 765 444 706 479 765 b 658 501 640 765 658 700 b 549 236 658 329 639 236 z m 253 1308 l 467 1072 l 711 1072 l 575 1308 z "},"Ó":{"ha":1106,"x_min":0,"x_max":0,"o":"m 1071 501 b 564 1029 1071 836 882 1029 b 35 494 231 1029 35 833 b 551 -29 35 169 232 -29 b 1071 501 872 -29 1071 172 z m 549 236 b 444 492 475 236 444 307 b 557 765 444 706 479 765 b 658 501 640 765 658 700 b 549 236 658 329 639 236 z m 519 1308 l 383 1072 l 628 1072 l 842 1308 z "},"Ô":{"ha":1106,"x_min":0,"x_max":0,"o":"m 1071 501 b 564 1029 1071 836 882 1029 b 35 494 231 1029 35 833 b 551 -29 35 169 232 -29 b 1071 501 872 -29 1071 172 z m 549 236 b 444 492 475 236 444 307 b 557 765 444 706 479 765 b 658 501 640 765 658 700 b 549 236 658 329 639 236 z m 399 1308 l 240 1072 l 493 1072 l 554 1178 l 615 1072 l 868 1072 l 710 1308 z "},"Õ":{"ha":1106,"x_min":0,"x_max":0,"o":"m 1071 501 b 564 1029 1071 836 882 1029 b 35 494 231 1029 35 833 b 551 -29 35 169 232 -29 b 1071 501 872 -29 1071 172 z m 549 236 b 444 492 475 236 444 307 b 557 765 444 706 479 765 b 658 501 640 765 658 700 b 549 236 658 329 639 236 z m 682 1300 b 650 1261 681 1272 667 1261 b 543 1289 622 1261 590 1276 b 429 1308 503 1300 460 1308 b 254 1104 319 1308 254 1225 l 254 1081 l 426 1081 b 453 1119 426 1107 438 1119 b 542 1097 482 1119 514 1104 b 661 1072 581 1088 621 1072 b 854 1300 790 1072 854 1143 z "},"Ö":{"ha":1106,"x_min":0,"x_max":0,"o":"m 1071 501 b 564 1029 1071 836 882 1029 b 35 494 231 1029 35 833 b 551 -29 35 169 232 -29 b 1071 501 872 -29 1071 172 z m 549 236 b 444 492 475 236 444 307 b 557 765 444 706 479 765 b 658 501 640 765 658 700 b 549 236 658 329 639 236 z m 274 1308 l 274 1072 l 501 1072 l 501 1308 z m 607 1308 l 607 1072 l 835 1072 l 835 1308 z "},"Ō":{"ha":1106,"x_min":0,"x_max":0,"o":"m 1071 501 b 564 1029 1071 836 882 1029 b 35 494 231 1029 35 833 b 551 -29 35 169 232 -29 b 1071 501 872 -29 1071 172 z m 549 236 b 444 492 475 236 444 307 b 557 765 444 706 479 765 b 658 501 640 765 658 700 b 549 236 658 329 639 236 z m 257 1276 l 257 1113 l 851 1113 l 851 1276 z "},"Ŏ":{"ha":1106,"x_min":0,"x_max":0,"o":"m 1071 501 b 564 1029 1071 836 882 1029 b 35 494 231 1029 35 833 b 551 -29 35 169 232 -29 b 1071 501 872 -29 1071 172 z m 549 236 b 444 492 475 236 444 307 b 557 765 444 706 479 765 b 658 501 640 765 658 700 b 549 236 658 329 639 236 z m 281 1308 b 554 1064 297 1151 394 1064 b 828 1308 715 1064 811 1153 l 622 1308 b 554 1228 618 1253 589 1228 b 486 1308 517 1228 488 1258 z "},"Ő":{"ha":1106,"x_min":0,"x_max":0,"o":"m 1071 501 b 564 1029 1071 836 882 1029 b 35 494 231 1029 35 833 b 551 -29 35 169 232 -29 b 1071 501 872 -29 1071 172 z m 549 236 b 444 492 475 236 444 307 b 557 765 444 706 479 765 b 658 501 640 765 658 700 b 549 236 658 329 639 236 z m 388 1308 l 251 1072 l 496 1072 l 710 1308 z m 790 1308 l 654 1072 l 899 1072 l 1113 1308 z "},"Ø":{"ha":1106,"x_min":0,"x_max":0,"o":"m 899 1124 l 800 985 b 557 1029 738 1014 644 1029 b 33 494 231 1029 33 833 b 171 111 33 333 78 206 l 61 -44 l 193 -139 l 304 19 b 553 -29 372 -11 474 -29 b 1069 503 876 -29 1069 181 b 928 900 1069 671 1021 807 l 1022 1035 z m 425 463 b 424 503 425 476 424 490 b 432 621 424 549 428 586 b 550 765 443 704 467 765 b 628 744 582 765 610 757 z m 679 550 b 681 517 679 546 681 544 b 551 236 681 307 650 236 b 475 260 513 236 490 243 z "},"Ǿ":{"ha":1106,"x_min":0,"x_max":0,"o":"m 899 1124 l 800 985 b 557 1029 738 1014 644 1029 b 33 494 231 1029 33 833 b 171 111 33 333 78 206 l 61 -44 l 193 -139 l 304 19 b 553 -29 372 -11 474 -29 b 1069 503 876 -29 1069 181 b 928 900 1069 671 1021 807 l 1022 1035 z m 425 463 b 424 503 425 476 424 490 b 432 621 424 549 428 586 b 550 765 443 704 467 765 b 628 744 582 765 610 757 z m 679 550 b 681 517 679 546 681 544 b 551 236 681 307 650 236 b 475 260 513 236 490 243 z m 519 1308 l 383 1072 l 628 1072 l 842 1308 z "},"Œ":{"ha":1336,"x_min":0,"x_max":0,"o":"m 529 1007 b 33 506 214 1007 33 828 b 492 -7 33 193 203 -7 b 711 0 511 -7 690 0 l 1301 0 l 1301 261 l 990 261 l 990 376 l 1269 376 l 1269 631 l 990 631 l 990 739 l 1301 739 l 1301 1003 l 739 1003 b 529 1007 710 1003 639 1004 z m 551 232 b 421 492 442 232 421 310 b 543 772 421 690 444 772 b 614 754 569 772 585 769 l 614 249 b 551 232 593 236 575 232 z "},"Ŕ":{"ha":1053,"x_min":0,"x_max":0,"o":"m 68 1003 l 68 0 l 460 0 l 460 361 l 497 361 b 610 249 583 361 596 339 b 635 83 618 194 625 138 b 653 0 640 56 646 26 l 1042 0 b 1007 161 1028 40 1015 99 l 989 310 b 807 508 972 442 946 485 b 1004 746 947 550 1004 618 b 918 942 1004 832 974 899 b 672 1003 860 986 758 1003 z m 457 778 l 488 778 b 625 689 588 778 625 753 b 482 583 625 615 582 583 l 457 583 z m 482 1308 l 346 1072 l 590 1072 l 804 1308 z "},"Ř":{"ha":1053,"x_min":0,"x_max":0,"o":"m 68 1003 l 68 0 l 460 0 l 460 361 l 497 361 b 610 249 583 361 596 339 b 635 83 618 194 625 138 b 653 0 640 56 646 26 l 1042 0 b 1007 161 1028 40 1015 99 l 989 310 b 807 508 972 442 946 485 b 1004 746 947 550 1004 618 b 918 942 1004 832 974 899 b 672 1003 860 986 758 1003 z m 457 778 l 488 778 b 625 689 588 778 625 753 b 482 583 625 615 582 583 l 457 583 z m 188 1308 l 346 1072 l 657 1072 l 815 1308 l 563 1308 l 501 1203 l 440 1308 z "},"Ŗ":{"ha":1053,"x_min":0,"x_max":0,"o":"m 68 1003 l 68 0 l 460 0 l 460 361 l 497 361 b 610 249 583 361 596 339 b 635 83 618 194 625 138 b 653 0 640 56 646 26 l 1042 0 b 1007 161 1028 40 1015 99 l 989 310 b 807 508 972 442 946 485 b 1004 746 947 550 1004 618 b 918 942 1004 832 974 899 b 672 1003 860 986 758 1003 z m 457 778 l 488 778 b 625 689 588 778 625 753 b 482 583 625 615 582 583 l 457 583 z m 407 -69 l 335 -322 l 524 -322 l 719 -69 z "},"Ś":{"ha":1003,"x_min":0,"x_max":0,"o":"m 944 721 b 511 1029 944 925 797 1029 b 46 699 211 1029 46 910 b 300 421 46 514 176 457 l 525 356 b 604 282 581 339 604 315 b 508 197 604 233 564 197 b 406 313 435 197 406 226 l 28 313 b 493 -29 28 85 193 -29 b 865 74 676 -29 785 10 b 975 319 940 133 975 213 b 708 618 975 503 851 581 l 549 660 b 469 681 515 668 489 674 b 411 742 424 697 411 718 b 503 808 411 782 447 808 b 590 721 565 808 586 788 z m 478 1308 l 342 1072 l 586 1072 l 800 1308 z "},"Ŝ":{"ha":1003,"x_min":0,"x_max":0,"o":"m 944 721 b 511 1029 944 925 797 1029 b 46 699 211 1029 46 910 b 300 421 46 514 176 457 l 525 356 b 604 282 581 339 604 315 b 508 197 604 233 564 197 b 406 313 435 197 406 226 l 28 313 b 493 -29 28 85 193 -29 b 865 74 676 -29 785 10 b 975 319 940 133 975 213 b 708 618 975 503 851 581 l 549 660 b 469 681 515 668 489 674 b 411 742 424 697 411 718 b 503 808 411 782 447 808 b 590 721 565 808 586 788 z m 343 1308 l 185 1072 l 438 1072 l 499 1178 l 560 1072 l 813 1072 l 654 1308 z "},"Š":{"ha":1003,"x_min":0,"x_max":0,"o":"m 944 721 b 511 1029 944 925 797 1029 b 46 699 211 1029 46 910 b 300 421 46 514 176 457 l 525 356 b 604 282 581 339 604 315 b 508 197 604 233 564 197 b 406 313 435 197 406 226 l 28 313 b 493 -29 28 85 193 -29 b 865 74 676 -29 785 10 b 975 319 940 133 975 213 b 708 618 975 503 851 581 l 549 660 b 469 681 515 668 489 674 b 411 742 424 697 411 718 b 503 808 411 782 447 808 b 590 721 565 808 586 788 z m 185 1308 l 343 1072 l 654 1072 l 813 1308 l 560 1308 l 499 1203 l 438 1308 z "},"Ş":{"ha":1003,"x_min":0,"x_max":0,"o":"m 944 721 b 511 1029 944 925 797 1029 b 46 699 211 1029 46 910 b 300 421 46 514 176 457 l 525 356 b 604 282 581 339 604 315 b 508 197 604 233 564 197 b 406 313 435 197 406 226 l 28 313 b 440 -28 28 99 174 -14 l 385 -128 l 438 -169 b 482 -160 454 -164 471 -160 b 536 -197 510 -160 536 -175 b 464 -244 536 -224 503 -244 b 340 -211 429 -244 385 -232 l 303 -300 b 494 -339 351 -324 424 -339 b 700 -192 621 -339 700 -279 b 568 -74 700 -124 646 -74 b 525 -78 551 -74 531 -76 l 553 -28 b 865 74 700 -21 793 17 b 975 319 940 133 975 213 b 708 618 975 503 851 581 l 549 660 b 469 681 515 668 489 674 b 411 742 424 697 411 718 b 503 808 411 782 447 808 b 590 721 565 808 586 788 z "},"Ș":{"ha":1003,"x_min":0,"x_max":0,"o":"m 944 721 b 511 1029 944 925 797 1029 b 46 699 211 1029 46 910 b 300 421 46 514 176 457 l 525 356 b 604 282 581 339 604 315 b 508 197 604 233 564 197 b 406 313 435 197 406 226 l 28 313 b 493 -29 28 85 193 -29 b 865 74 676 -29 785 10 b 975 319 940 133 975 213 b 708 618 975 503 851 581 l 549 660 b 469 681 515 668 489 674 b 411 742 424 697 411 718 b 503 808 411 782 447 808 b 590 721 565 808 586 788 z m 392 -69 l 319 -322 l 508 -322 l 704 -69 z "},"Ť":{"ha":900,"x_min":0,"x_max":0,"o":"m 4 1003 l 4 732 l 250 732 l 250 0 l 649 0 l 649 732 l 896 732 l 896 1003 z m 136 1308 l 294 1072 l 606 1072 l 764 1308 l 511 1308 l 450 1203 l 389 1308 z "},"Ţ":{"ha":900,"x_min":0,"x_max":0,"o":"m 4 1003 l 4 732 l 250 732 l 250 0 l 649 0 l 649 732 l 896 732 l 896 1003 z m 306 -69 l 233 -322 l 422 -322 l 618 -69 z "},"Ț":{"ha":900,"x_min":0,"x_max":0,"o":"m 4 1003 l 4 732 l 250 732 l 250 0 l 649 0 l 649 732 l 896 732 l 896 1003 z m 306 -69 l 233 -322 l 422 -322 l 618 -69 z "},"Ŧ":{"ha":900,"x_min":0,"x_max":0,"o":"m 4 1003 l 4 732 l 250 732 l 250 558 l 74 558 l 74 315 l 250 315 l 250 0 l 649 0 l 649 315 l 826 315 l 826 558 l 649 558 l 649 732 l 896 732 l 896 1003 z "},"Þ":{"ha":1028,"x_min":0,"x_max":0,"o":"m 71 1003 l 71 0 l 469 0 l 469 183 l 608 183 b 940 307 771 183 875 225 b 1011 519 982 360 1011 429 b 857 803 1011 644 956 749 b 647 846 800 833 731 846 l 469 846 l 469 1003 z m 469 625 l 503 625 b 629 522 599 625 629 586 b 500 411 629 440 579 411 l 469 411 z "},"Ù":{"ha":1081,"x_min":0,"x_max":0,"o":"m 64 1003 l 64 331 b 94 174 64 271 74 218 b 528 -29 160 36 321 -29 b 963 140 726 -29 889 35 b 1018 368 1000 193 1018 269 l 1018 1003 l 628 1003 l 628 347 b 544 244 628 286 599 244 b 463 351 488 244 463 285 l 463 1003 z m 239 1308 l 453 1072 l 697 1072 l 561 1308 z "},"Ú":{"ha":1081,"x_min":0,"x_max":0,"o":"m 64 1003 l 64 331 b 94 174 64 271 74 218 b 528 -29 160 36 321 -29 b 963 140 726 -29 889 35 b 1018 368 1000 193 1018 269 l 1018 1003 l 628 1003 l 628 347 b 544 244 628 286 599 244 b 463 351 488 244 463 285 l 463 1003 z m 533 1308 l 397 1072 l 642 1072 l 856 1308 z "},"Û":{"ha":1081,"x_min":0,"x_max":0,"o":"m 64 1003 l 64 331 b 94 174 64 271 74 218 b 528 -29 160 36 321 -29 b 963 140 726 -29 889 35 b 1018 368 1000 193 1018 269 l 1018 1003 l 628 1003 l 628 347 b 544 244 628 286 599 244 b 463 351 488 244 463 285 l 463 1003 z m 385 1308 l 226 1072 l 479 1072 l 540 1178 l 601 1072 l 854 1072 l 696 1308 z "},"Ũ":{"ha":1081,"x_min":0,"x_max":0,"o":"m 64 1003 l 64 331 b 94 174 64 271 74 218 b 528 -29 160 36 321 -29 b 963 140 726 -29 889 35 b 1018 368 1000 193 1018 269 l 1018 1003 l 628 1003 l 628 347 b 544 244 628 286 599 244 b 463 351 488 244 463 285 l 463 1003 z m 668 1300 b 636 1261 667 1272 653 1261 b 529 1289 608 1261 576 1276 b 415 1308 489 1300 446 1308 b 240 1104 306 1308 240 1225 l 240 1081 l 413 1081 b 439 1119 413 1107 424 1119 b 528 1097 468 1119 500 1104 b 647 1072 567 1088 607 1072 b 840 1300 776 1072 840 1143 z "},"Ü":{"ha":1081,"x_min":0,"x_max":0,"o":"m 64 1003 l 64 331 b 94 174 64 271 74 218 b 528 -29 160 36 321 -29 b 963 140 726 -29 889 35 b 1018 368 1000 193 1018 269 l 1018 1003 l 628 1003 l 628 347 b 544 244 628 286 599 244 b 463 351 488 244 463 285 l 463 1003 z m 260 1308 l 260 1072 l 488 1072 l 488 1308 z m 593 1308 l 593 1072 l 821 1072 l 821 1308 z "},"Ū":{"ha":1081,"x_min":0,"x_max":0,"o":"m 64 1003 l 64 331 b 94 174 64 271 74 218 b 528 -29 160 36 321 -29 b 963 140 726 -29 889 35 b 1018 368 1000 193 1018 269 l 1018 1003 l 628 1003 l 628 347 b 544 244 628 286 599 244 b 463 351 488 244 463 285 l 463 1003 z m 243 1276 l 243 1113 l 838 1113 l 838 1276 z "},"Ŭ":{"ha":1081,"x_min":0,"x_max":0,"o":"m 64 1003 l 64 331 b 94 174 64 271 74 218 b 528 -29 160 36 321 -29 b 963 140 726 -29 889 35 b 1018 368 1000 193 1018 269 l 1018 1003 l 628 1003 l 628 347 b 544 244 628 286 599 244 b 463 351 488 244 463 285 l 463 1003 z m 267 1308 b 540 1064 283 1151 381 1064 b 814 1308 701 1064 797 1153 l 608 1308 b 540 1228 604 1253 575 1228 b 472 1308 503 1228 474 1258 z "},"Ů":{"ha":1081,"x_min":0,"x_max":0,"o":"m 64 1003 l 64 331 b 94 174 64 271 74 218 b 528 -29 160 36 321 -29 b 963 140 726 -29 889 35 b 1018 368 1000 193 1018 269 l 1018 1003 l 628 1003 l 628 347 b 544 244 628 286 599 244 b 463 351 488 244 463 285 l 463 1003 z m 722 1231 b 540 1413 722 1329 639 1413 b 358 1231 443 1413 358 1332 b 540 1049 358 1132 442 1049 b 722 1231 642 1049 722 1133 z m 540 1171 b 481 1231 507 1171 481 1197 b 540 1290 481 1264 507 1290 b 600 1231 574 1290 600 1264 b 540 1171 600 1197 574 1171 z "},"Ű":{"ha":1081,"x_min":0,"x_max":0,"o":"m 64 1003 l 64 331 b 94 174 64 271 74 218 b 528 -29 160 36 321 -29 b 963 140 726 -29 889 35 b 1018 368 1000 193 1018 269 l 1018 1003 l 628 1003 l 628 347 b 544 244 628 286 599 244 b 463 351 488 244 463 285 l 463 1003 z m 376 1308 l 240 1072 l 485 1072 l 699 1308 z m 779 1308 l 643 1072 l 888 1072 l 1101 1308 z "},"Ų":{"ha":1081,"x_min":0,"x_max":0,"o":"m 64 1003 l 64 331 b 499 -28 64 103 217 -17 b 374 -200 417 -74 374 -133 b 557 -322 374 -285 431 -322 b 726 -299 607 -322 675 -314 l 703 -204 b 619 -219 674 -215 643 -219 b 546 -158 571 -219 546 -196 b 668 -17 546 -114 586 -71 b 1018 368 875 19 1018 111 l 1018 1003 l 628 1003 l 628 347 b 544 244 628 286 599 244 b 463 351 489 244 463 285 l 463 1003 z "},"Ẃ":{"ha":1439,"x_min":0,"x_max":0,"o":"m -19 1003 l 193 0 l 628 0 l 724 650 l 818 0 l 1247 0 l 1460 1003 l 1113 1003 l 1024 371 l 931 1003 l 517 1003 l 422 371 l 336 1003 z m 724 1308 l 588 1072 l 832 1072 l 1046 1308 z "},"Ŵ":{"ha":1439,"x_min":0,"x_max":0,"o":"m -19 1003 l 193 0 l 628 0 l 724 650 l 818 0 l 1247 0 l 1460 1003 l 1113 1003 l 1024 371 l 931 1003 l 517 1003 l 422 371 l 336 1003 z m 565 1308 l 407 1072 l 660 1072 l 721 1178 l 782 1072 l 1035 1072 l 876 1308 z "},"Ẅ":{"ha":1439,"x_min":0,"x_max":0,"o":"m -19 1003 l 193 0 l 628 0 l 724 650 l 818 0 l 1247 0 l 1460 1003 l 1113 1003 l 1024 371 l 931 1003 l 517 1003 l 422 371 l 336 1003 z m 440 1308 l 440 1072 l 668 1072 l 668 1308 z m 774 1308 l 774 1072 l 1001 1072 l 1001 1308 z "},"Ẁ":{"ha":1439,"x_min":0,"x_max":0,"o":"m -19 1003 l 193 0 l 628 0 l 724 650 l 818 0 l 1247 0 l 1460 1003 l 1113 1003 l 1024 371 l 931 1003 l 517 1003 l 422 371 l 336 1003 z m 422 1308 l 636 1072 l 881 1072 l 744 1308 z "},"Ý":{"ha":1028,"x_min":0,"x_max":0,"o":"m -25 1003 l 317 347 l 317 0 l 713 0 l 713 347 l 1053 1003 l 669 1003 l 529 582 l 386 1003 z m 507 1308 l 371 1072 l 615 1072 l 829 1308 z "},"Ŷ":{"ha":1028,"x_min":0,"x_max":0,"o":"m -25 1003 l 317 347 l 317 0 l 713 0 l 713 347 l 1053 1003 l 669 1003 l 529 582 l 386 1003 z m 374 1308 l 215 1072 l 468 1072 l 529 1178 l 590 1072 l 843 1072 l 685 1308 z "},"Ÿ":{"ha":1028,"x_min":0,"x_max":0,"o":"m -25 1003 l 317 347 l 317 0 l 713 0 l 713 347 l 1053 1003 l 669 1003 l 529 582 l 386 1003 z m 249 1308 l 249 1072 l 476 1072 l 476 1308 z m 582 1308 l 582 1072 l 810 1072 l 810 1308 z "},"Ỳ":{"ha":1028,"x_min":0,"x_max":0,"o":"m -25 1003 l 317 347 l 317 0 l 713 0 l 713 347 l 1053 1003 l 669 1003 l 529 582 l 386 1003 z m 233 1308 l 447 1072 l 692 1072 l 556 1308 z "},"Ź":{"ha":951,"x_min":0,"x_max":0,"o":"m 44 1003 l 44 742 l 450 742 l 32 242 l 32 0 l 919 0 l 919 261 l 492 261 l 910 763 l 910 1003 z m 450 1308 l 314 1072 l 558 1072 l 772 1308 z "},"Ž":{"ha":951,"x_min":0,"x_max":0,"o":"m 44 1003 l 44 742 l 450 742 l 32 242 l 32 0 l 919 0 l 919 261 l 492 261 l 910 763 l 910 1003 z m 157 1308 l 315 1072 l 626 1072 l 785 1308 l 532 1308 l 471 1203 l 410 1308 z "},"Ż":{"ha":951,"x_min":0,"x_max":0,"o":"m 44 1003 l 44 742 l 450 742 l 32 242 l 32 0 l 919 0 l 919 261 l 492 261 l 910 763 l 910 1003 z m 357 1308 l 357 1072 l 585 1072 l 585 1308 z "},"à":{"ha":822,"x_min":0,"x_max":0,"o":"m 768 474 b 724 624 768 538 754 588 b 410 713 665 693 529 713 b 179 674 310 713 235 700 b 56 489 93 633 57 561 l 332 489 b 397 556 333 538 353 556 b 461 500 442 556 461 539 l 461 440 b 411 442 439 442 422 442 b 21 196 143 442 21 353 b 265 -18 21 61 111 -18 b 468 74 358 -18 418 13 l 474 0 l 768 0 z m 388 160 b 311 226 338 160 311 183 b 433 313 311 288 357 313 b 465 310 438 313 449 311 l 465 269 b 388 160 465 199 447 160 z m 122 1003 l 336 767 l 582 767 l 449 1003 z "},"á":{"ha":822,"x_min":0,"x_max":0,"o":"m 768 474 b 724 624 768 538 754 588 b 410 713 665 693 529 713 b 179 674 310 713 235 700 b 56 489 93 633 57 561 l 332 489 b 397 556 333 538 353 556 b 461 500 442 556 461 539 l 461 440 b 411 442 439 442 422 442 b 21 196 143 442 21 353 b 265 -18 21 61 111 -18 b 468 74 358 -18 418 13 l 474 0 l 768 0 z m 388 160 b 311 226 338 160 311 183 b 433 313 311 288 357 313 b 465 310 438 313 449 311 l 465 269 b 388 160 465 199 447 160 z m 390 1003 l 254 767 l 499 767 l 713 1003 z "},"â":{"ha":822,"x_min":0,"x_max":0,"o":"m 768 474 b 724 624 768 538 754 588 b 410 713 665 693 529 713 b 179 674 310 713 235 700 b 56 489 93 633 57 561 l 332 489 b 397 556 333 538 353 556 b 461 500 442 556 461 539 l 461 440 b 411 442 439 442 422 442 b 21 196 143 442 21 353 b 265 -18 21 61 111 -18 b 468 74 358 -18 418 13 l 474 0 l 768 0 z m 388 160 b 311 226 338 160 311 183 b 433 313 311 288 357 313 b 465 310 438 313 449 311 l 465 269 b 388 160 465 199 447 160 z m 246 1003 l 88 767 l 340 767 l 401 872 l 463 767 l 715 767 l 557 1003 z "},"ã":{"ha":822,"x_min":0,"x_max":0,"o":"m 768 474 b 724 624 768 538 754 588 b 410 713 665 693 529 713 b 179 674 310 713 235 700 b 56 489 93 633 57 561 l 332 489 b 397 556 333 538 353 556 b 461 500 442 556 461 539 l 461 440 b 411 442 439 442 422 442 b 21 196 143 442 21 353 b 265 -18 21 61 111 -18 b 468 74 358 -18 418 13 l 474 0 l 768 0 z m 388 160 b 311 226 338 160 311 183 b 433 313 311 288 357 313 b 465 310 438 313 449 311 l 465 269 b 388 160 465 199 447 160 z m 529 994 b 497 956 528 967 514 956 b 390 983 469 956 438 971 b 276 1003 350 994 307 1003 b 101 799 167 1003 101 919 l 101 775 l 274 775 b 300 814 274 801 285 814 b 389 792 329 814 361 799 b 508 767 428 782 468 767 b 701 994 638 767 701 838 z "},"ä":{"ha":822,"x_min":0,"x_max":0,"o":"m 768 474 b 724 624 768 538 754 588 b 410 713 665 693 529 713 b 179 674 310 713 235 700 b 56 489 93 633 57 561 l 332 489 b 397 556 333 538 353 556 b 461 500 442 556 461 539 l 461 440 b 411 442 439 442 422 442 b 21 196 143 442 21 353 b 265 -18 21 61 111 -18 b 468 74 358 -18 418 13 l 474 0 l 768 0 z m 388 160 b 311 226 338 160 311 183 b 433 313 311 288 357 313 b 465 310 438 313 449 311 l 465 269 b 388 160 465 199 447 160 z m 121 1003 l 121 767 l 349 767 l 349 1003 z m 454 1003 l 454 767 l 682 767 l 682 1003 z "},"ā":{"ha":822,"x_min":0,"x_max":0,"o":"m 768 474 b 724 624 768 538 754 588 b 410 713 665 693 529 713 b 179 674 310 713 235 700 b 56 489 93 633 57 561 l 332 489 b 397 556 333 538 353 556 b 461 500 442 556 461 539 l 461 440 b 411 442 439 442 422 442 b 21 196 143 442 21 353 b 265 -18 21 61 111 -18 b 468 74 358 -18 418 13 l 474 0 l 768 0 z m 388 160 b 311 226 338 160 311 183 b 433 313 311 288 357 313 b 465 310 438 313 449 311 l 465 269 b 388 160 465 199 447 160 z m 104 971 l 104 807 l 699 807 l 699 971 z "},"ă":{"ha":822,"x_min":0,"x_max":0,"o":"m 768 474 b 724 624 768 538 754 588 b 410 713 665 693 529 713 b 179 674 310 713 235 700 b 56 489 93 633 57 561 l 332 489 b 397 556 333 538 353 556 b 461 500 442 556 461 539 l 461 440 b 411 442 439 442 422 442 b 21 196 143 442 21 353 b 265 -18 21 61 111 -18 b 468 74 358 -18 418 13 l 474 0 l 768 0 z m 388 160 b 311 226 338 160 311 183 b 433 313 311 288 357 313 b 465 310 438 313 449 311 l 465 269 b 388 160 465 199 447 160 z m 128 1003 b 401 758 144 843 246 758 b 675 1003 557 758 657 843 l 469 1003 b 401 922 465 947 436 922 b 333 1003 364 922 335 953 z "},"å":{"ha":822,"x_min":0,"x_max":0,"o":"m 768 474 b 724 624 768 538 754 588 b 410 713 665 693 529 713 b 179 674 310 713 235 700 b 56 489 93 633 57 561 l 332 489 b 397 556 333 538 353 556 b 461 500 442 556 461 539 l 461 440 b 411 442 439 442 422 442 b 21 196 143 442 21 353 b 265 -18 21 61 111 -18 b 468 74 358 -18 418 13 l 474 0 l 768 0 z m 388 160 b 311 226 338 160 311 183 b 433 313 311 288 357 313 b 465 310 438 313 449 311 l 465 269 b 388 160 465 199 447 160 z m 597 946 b 415 1128 597 1044 514 1128 b 233 946 318 1128 233 1047 b 415 764 233 846 315 764 b 597 946 517 764 597 849 z m 415 886 b 356 946 382 886 356 913 b 415 1006 356 979 382 1006 b 475 946 449 1006 475 979 b 415 886 475 913 449 886 z "},"ǻ":{"ha":822,"x_min":0,"x_max":0,"o":"m 442 1339 l 306 1174 l 513 1174 l 731 1339 z m 597 946 b 415 1128 597 1046 515 1128 b 233 946 318 1128 233 1047 b 415 764 233 846 315 764 b 597 946 517 764 597 849 z m 415 886 b 356 946 382 886 356 913 b 414 1006 356 979 382 1006 b 475 946 449 1006 475 979 b 415 886 475 913 449 886 z m 765 474 b 411 718 765 661 636 718 b 171 675 296 718 228 701 b 51 490 90 638 53 561 l 329 490 b 397 563 331 539 350 563 b 463 501 447 563 463 540 l 463 435 l 413 435 b 22 193 144 435 22 350 b 267 -21 22 58 115 -21 b 463 67 349 -21 413 4 l 471 0 l 765 0 z m 385 151 b 308 218 335 151 308 182 b 431 304 308 288 351 304 l 463 304 l 463 256 b 385 151 463 185 444 151 z "},"ą":{"ha":822,"x_min":0,"x_max":0,"o":"m 768 464 b 728 618 768 531 758 581 b 410 713 674 686 556 713 b 56 489 156 713 63 622 l 332 489 b 397 556 333 538 353 556 b 461 500 442 556 461 539 l 461 440 b 411 442 435 442 433 442 b 21 196 143 442 21 353 b 265 -18 21 61 111 -18 b 468 74 356 -18 418 13 l 474 0 l 588 0 b 401 -200 465 -49 401 -121 b 585 -322 401 -285 461 -322 b 754 -299 635 -322 703 -314 l 731 -204 b 647 -219 701 -215 671 -219 b 574 -158 599 -219 574 -196 b 726 0 574 -110 625 -60 l 768 0 z m 388 160 b 311 226 338 160 311 183 b 433 313 311 288 357 313 b 465 310 440 313 451 311 l 465 268 b 388 160 465 197 444 160 z "},"æ":{"ha":1258,"x_min":0,"x_max":0,"o":"m 629 643 b 371 722 575 694 481 722 b 56 490 176 722 60 635 l 331 490 b 393 568 332 544 353 568 b 461 474 429 568 461 564 b 460 436 461 463 460 447 b 351 435 421 436 385 436 b 72 346 190 429 122 401 b 17 201 40 311 17 263 b 318 -24 17 61 131 -24 b 586 75 444 -24 519 1 b 846 -24 640 8 724 -24 b 1213 226 1057 -24 1194 67 l 924 226 b 836 144 919 172 885 144 b 743 265 771 144 743 197 l 743 288 l 1225 288 b 1228 335 1226 308 1228 317 b 861 722 1228 574 1089 722 b 629 643 765 722 692 697 z m 746 436 b 838 554 746 515 779 554 b 926 436 899 554 926 513 z m 385 157 b 310 231 339 157 310 186 b 433 308 310 285 346 308 b 464 307 446 308 456 308 l 464 276 b 385 157 464 199 446 157 z "},"ǽ":{"ha":1258,"x_min":0,"x_max":0,"o":"m 629 643 b 371 722 575 694 481 722 b 56 490 176 722 60 635 l 331 490 b 393 568 332 544 353 568 b 461 474 429 568 461 564 b 460 436 461 463 460 447 b 351 435 421 436 385 436 b 72 346 190 429 122 401 b 17 201 40 311 17 263 b 318 -24 17 61 131 -24 b 586 75 444 -24 519 1 b 846 -24 640 8 724 -24 b 1213 226 1057 -24 1194 67 l 924 226 b 836 144 919 172 885 144 b 743 265 771 144 743 197 l 743 288 l 1225 288 b 1228 335 1226 308 1228 317 b 861 722 1228 574 1089 722 b 629 643 765 722 692 697 z m 746 436 b 838 554 746 515 779 554 b 926 436 899 554 926 513 z m 385 157 b 310 231 339 157 310 186 b 433 308 310 285 346 308 b 464 307 446 308 456 308 l 464 276 b 385 157 464 199 446 157 z m 606 1003 l 469 767 l 714 767 l 928 1003 z "},"ć":{"ha":875,"x_min":0,"x_max":0,"o":"m 838 418 b 451 718 838 608 692 718 b 36 350 199 718 36 583 b 451 -21 36 107 172 -21 b 843 279 713 -21 843 90 l 843 286 l 528 286 b 454 153 528 196 504 153 b 374 285 399 153 374 186 l 374 375 b 454 542 374 488 393 542 b 528 418 508 542 526 507 z m 425 1003 l 289 767 l 533 767 l 747 1003 z "},"ĉ":{"ha":875,"x_min":0,"x_max":0,"o":"m 838 418 b 451 718 838 608 692 718 b 36 350 199 718 36 583 b 451 -21 36 107 172 -21 b 843 279 713 -21 843 90 l 843 286 l 528 286 b 454 153 528 196 504 153 b 374 285 399 153 374 186 l 374 375 b 454 542 374 488 393 542 b 528 418 508 542 526 507 z m 296 1003 l 138 767 l 390 767 l 451 872 l 513 767 l 765 767 l 607 1003 z "},"č":{"ha":875,"x_min":0,"x_max":0,"o":"m 838 418 b 451 718 838 608 692 718 b 36 350 199 718 36 583 b 451 -21 36 107 172 -21 b 843 279 713 -21 843 90 l 843 286 l 528 286 b 454 153 528 196 504 153 b 374 285 399 153 374 186 l 374 375 b 454 542 374 488 393 542 b 528 418 508 542 526 507 z m 138 1003 l 296 767 l 607 767 l 765 1003 l 513 1003 l 451 897 l 390 1003 z "},"ċ":{"ha":875,"x_min":0,"x_max":0,"o":"m 838 418 b 451 718 838 608 692 718 b 36 350 199 718 36 583 b 451 -21 36 107 172 -21 b 843 279 713 -21 843 90 l 843 286 l 528 286 b 454 153 528 196 504 153 b 374 285 399 153 374 186 l 374 375 b 454 542 374 488 393 542 b 528 418 508 542 526 507 z m 338 1003 l 338 767 l 565 767 l 565 1003 z "},"ç":{"ha":875,"x_min":0,"x_max":0,"o":"m 838 418 b 451 718 838 608 692 718 b 36 350 196 718 36 583 b 378 -18 36 129 146 3 l 317 -128 l 369 -169 b 413 -160 386 -164 403 -160 b 468 -197 442 -160 468 -175 b 396 -244 468 -224 435 -244 b 272 -211 361 -244 317 -232 l 235 -300 b 428 -339 285 -324 356 -339 b 632 -192 551 -339 632 -279 b 500 -74 632 -124 578 -74 b 457 -78 479 -74 464 -78 l 490 -19 b 843 279 735 -7 843 106 l 843 286 l 528 286 b 454 153 528 197 504 153 b 374 283 397 153 374 189 l 374 369 b 454 542 374 496 394 542 b 528 418 508 542 526 507 z "},"ď":{"ha":925,"x_min":0,"x_max":0,"o":"m 528 1003 l 528 633 b 321 718 471 696 404 718 b 39 360 144 718 39 582 b 333 -22 39 119 150 -22 b 540 81 424 -22 489 10 l 551 0 l 868 0 l 868 1003 z m 461 178 b 381 335 403 178 381 221 l 381 385 b 457 518 381 483 410 518 b 533 385 524 518 533 453 l 533 293 b 461 178 533 219 513 178 z m 969 1003 l 911 750 l 1100 750 l 1282 1003 z "},"đ":{"ha":925,"x_min":0,"x_max":0,"o":"m 528 1003 l 528 931 l 371 931 l 371 739 l 528 739 l 528 613 b 321 697 471 675 404 697 b 39 346 150 697 39 560 b 333 -22 39 117 151 -22 b 540 81 424 -22 489 10 l 551 0 l 868 0 l 868 739 l 939 739 l 939 931 l 868 931 l 868 1003 z m 461 178 b 381 339 401 178 381 226 b 457 497 381 471 408 497 b 533 350 504 497 533 472 l 533 322 b 461 178 533 222 519 178 z "},"ð":{"ha":925,"x_min":0,"x_max":0,"o":"m 149 896 b 254 851 213 875 219 872 l 114 781 l 243 703 l 389 781 b 522 625 474 721 506 685 b 389 663 479 654 443 663 b 47 324 188 663 47 514 b 457 -25 47 108 204 -25 b 875 397 728 -25 875 125 b 624 900 875 615 796 774 l 765 972 l 651 1060 l 496 979 b 296 1068 410 1029 389 1038 z m 457 160 b 388 314 400 160 388 201 b 465 481 388 431 406 481 b 535 338 521 481 535 442 b 457 160 535 215 517 160 z "},"è":{"ha":875,"x_min":0,"x_max":0,"o":"m 840 325 b 460 722 840 590 711 722 b 35 354 188 722 35 594 b 433 -22 35 108 174 -22 b 783 110 615 -22 724 22 b 831 228 814 154 829 193 l 539 228 b 451 147 532 174 500 147 b 358 258 389 147 358 182 l 358 289 l 840 289 z m 358 438 b 450 553 358 525 390 553 b 539 438 513 553 539 524 z m 135 1003 l 349 767 l 594 767 l 461 1003 z "},"é":{"ha":875,"x_min":0,"x_max":0,"o":"m 840 325 b 460 722 840 590 711 722 b 35 354 188 722 35 594 b 433 -22 35 108 174 -22 b 783 110 615 -22 724 22 b 831 228 814 154 829 193 l 539 228 b 451 147 532 174 500 147 b 358 258 389 147 358 182 l 358 289 l 840 289 z m 358 438 b 450 553 358 525 390 553 b 539 438 513 553 539 524 z m 403 1003 l 267 767 l 511 767 l 725 1003 z "},"ê":{"ha":875,"x_min":0,"x_max":0,"o":"m 840 325 b 460 722 840 590 711 722 b 35 354 188 722 35 594 b 433 -22 35 108 174 -22 b 783 110 615 -22 724 22 b 831 228 814 154 829 193 l 539 228 b 451 147 532 174 500 147 b 358 258 389 147 358 182 l 358 289 l 840 289 z m 358 438 b 450 553 358 525 390 553 b 539 438 513 553 539 524 z m 290 1003 l 132 767 l 385 767 l 446 872 l 507 767 l 760 767 l 601 1003 z "},"ě":{"ha":875,"x_min":0,"x_max":0,"o":"m 840 325 b 460 722 840 590 711 722 b 35 354 188 722 35 594 b 433 -22 35 108 174 -22 b 783 110 615 -22 724 22 b 831 228 814 154 829 193 l 539 228 b 451 147 532 174 500 147 b 358 258 389 147 358 182 l 358 289 l 840 289 z m 358 438 b 450 553 358 525 390 553 b 539 438 513 553 539 524 z m 132 1003 l 290 767 l 601 767 l 760 1003 l 507 1003 l 446 897 l 385 1003 z "},"ë":{"ha":875,"x_min":0,"x_max":0,"o":"m 840 325 b 460 722 840 590 711 722 b 35 354 188 722 35 594 b 433 -22 35 108 174 -22 b 783 110 615 -22 724 22 b 831 228 814 154 829 193 l 539 228 b 451 147 532 174 500 147 b 358 258 389 147 358 182 l 358 289 l 840 289 z m 358 438 b 450 553 358 525 390 553 b 539 438 513 553 539 524 z m 165 1003 l 165 767 l 393 767 l 393 1003 z m 499 1003 l 499 767 l 726 767 l 726 1003 z "},"ē":{"ha":875,"x_min":0,"x_max":0,"o":"m 840 325 b 460 722 840 590 711 722 b 35 354 188 722 35 594 b 433 -22 35 108 174 -22 b 783 110 615 -22 724 22 b 831 228 814 154 829 193 l 539 228 b 451 147 532 174 500 147 b 358 258 389 147 358 182 l 358 289 l 840 289 z m 358 438 b 450 553 358 525 390 553 b 539 438 513 553 539 524 z m 149 971 l 149 807 l 743 807 l 743 971 z "},"ĕ":{"ha":875,"x_min":0,"x_max":0,"o":"m 840 325 b 460 722 840 590 711 722 b 35 354 188 722 35 594 b 433 -22 35 108 174 -22 b 783 110 615 -22 724 22 b 831 228 814 154 829 193 l 539 228 b 451 147 532 174 500 147 b 358 258 389 147 358 182 l 358 289 l 840 289 z m 358 438 b 450 553 358 525 390 553 b 539 438 513 553 539 524 z m 172 1003 b 446 758 189 843 290 758 b 719 1003 601 758 701 843 l 514 1003 b 446 922 510 947 481 922 b 378 1003 408 922 379 953 z "},"ė":{"ha":875,"x_min":0,"x_max":0,"o":"m 840 325 b 460 722 840 590 711 722 b 35 354 188 722 35 594 b 433 -22 35 108 174 -22 b 783 110 615 -22 724 22 b 831 228 814 154 829 193 l 539 228 b 451 147 532 174 500 147 b 358 258 389 147 358 182 l 358 289 l 840 289 z m 358 438 b 450 553 358 525 390 553 b 539 438 513 553 539 524 z m 332 1003 l 332 767 l 560 767 l 560 1003 z "},"ę":{"ha":875,"x_min":0,"x_max":0,"o":"m 840 331 b 460 722 840 588 714 722 b 35 354 188 722 35 594 b 429 -22 35 114 167 -18 b 293 -200 336 -71 293 -132 b 478 -322 293 -285 350 -322 b 646 -299 526 -322 594 -314 l 622 -204 b 539 -219 594 -215 563 -219 b 465 -158 490 -219 465 -196 b 614 -1 465 -112 503 -69 b 797 132 704 19 763 74 b 831 228 817 164 829 197 l 539 228 b 451 147 531 174 503 147 b 358 267 393 147 358 174 l 358 289 l 840 289 z m 358 438 b 450 553 358 525 390 553 b 539 438 515 553 539 519 z "},"ĝ":{"ha":925,"x_min":0,"x_max":0,"o":"m 543 621 b 340 713 499 683 433 713 b 38 351 150 713 38 569 b 342 13 38 140 151 13 b 553 103 440 13 510 43 l 553 51 b 543 -53 553 -1 550 -29 b 468 -101 529 -97 496 -101 b 397 -44 424 -101 399 -82 l 69 -44 b 439 -283 75 -200 194 -283 b 778 -194 610 -283 715 -250 b 868 67 851 -128 868 -43 l 868 694 l 554 694 z m 539 347 b 457 201 539 268 535 201 b 385 324 392 201 385 254 l 385 360 b 463 517 385 481 413 517 b 539 385 532 517 539 443 z m 351 1003 l 193 767 l 446 767 l 507 872 l 568 767 l 821 767 l 663 1003 z "},"ğ":{"ha":925,"x_min":0,"x_max":0,"o":"m 543 621 b 340 713 499 683 433 713 b 38 351 150 713 38 569 b 342 13 38 140 151 13 b 553 103 440 13 510 43 l 553 51 b 543 -53 553 -1 550 -29 b 468 -101 529 -97 496 -101 b 397 -44 424 -101 399 -82 l 69 -44 b 439 -283 75 -200 194 -283 b 778 -194 610 -283 715 -250 b 868 67 851 -128 868 -43 l 868 694 l 554 694 z m 539 347 b 457 201 539 268 535 201 b 385 324 392 201 385 254 l 385 360 b 463 517 385 481 413 517 b 539 385 532 517 539 443 z m 233 1003 b 507 758 250 843 351 758 b 781 1003 663 758 763 843 l 575 1003 b 507 922 571 947 542 922 b 439 1003 469 922 440 953 z "},"ġ":{"ha":925,"x_min":0,"x_max":0,"o":"m 543 621 b 340 713 499 683 433 713 b 38 351 150 713 38 569 b 342 13 38 140 151 13 b 553 103 440 13 510 43 l 553 51 b 543 -53 553 -1 550 -29 b 468 -101 529 -97 496 -101 b 397 -44 424 -101 399 -82 l 69 -44 b 439 -283 75 -200 194 -283 b 778 -194 610 -283 715 -250 b 868 67 851 -128 868 -43 l 868 694 l 554 694 z m 539 347 b 457 201 539 268 535 201 b 385 324 392 201 385 254 l 385 360 b 463 517 385 481 413 517 b 539 385 532 517 539 443 z m 393 1003 l 393 767 l 621 767 l 621 1003 z "},"ģ":{"ha":925,"x_min":0,"x_max":0,"o":"m 543 621 b 340 713 499 683 433 713 b 38 351 150 713 38 569 b 342 13 38 140 151 13 b 553 103 440 13 510 43 l 553 51 b 543 -53 553 -1 550 -29 b 468 -101 529 -97 496 -101 b 397 -44 424 -101 399 -82 l 69 -44 b 439 -283 75 -200 194 -283 b 778 -194 610 -283 715 -250 b 868 67 851 -128 868 -43 l 868 694 l 554 694 z m 539 347 b 457 201 539 268 535 201 b 385 324 392 201 385 254 l 385 360 b 463 517 385 481 413 517 b 539 385 532 517 539 443 z m 511 1019 l 315 767 l 628 767 l 700 1019 z "},"ĥ":{"ha":900,"x_min":0,"x_max":0,"o":"m 51 1003 l 51 0 l 390 0 l 390 419 b 453 508 390 475 408 508 b 514 431 496 508 514 476 l 514 0 l 850 0 l 850 442 b 607 717 850 636 772 717 b 390 601 503 717 439 683 l 390 1003 z m 208 1304 l 50 1068 l 303 1068 l 364 1174 l 425 1068 l 678 1068 l 519 1304 z "},"ħ":{"ha":900,"x_min":0,"x_max":0,"o":"m 51 1003 l 51 931 l -21 931 l -21 739 l 51 739 l 51 0 l 390 0 l 390 397 b 453 486 390 451 408 486 b 514 408 496 486 514 453 l 514 0 l 850 0 l 850 419 b 607 694 850 614 772 694 b 390 579 503 694 439 661 l 390 739 l 547 739 l 547 931 l 390 931 l 390 1003 z "},"ı":{"ha":436,"x_min":0,"x_max":0,"o":"m 50 694 l 50 0 l 386 0 l 386 694 z "},"ì":{"ha":436,"x_min":0,"x_max":0,"o":"m 50 694 l 50 0 l 386 0 l 386 694 z m -85 1003 l 129 767 l 375 767 l 242 1003 z "},"í":{"ha":436,"x_min":0,"x_max":0,"o":"m 50 694 l 50 0 l 386 0 l 386 694 z m 183 1003 l 47 767 l 292 767 l 506 1003 z "},"ĭ":{"ha":436,"x_min":0,"x_max":0,"o":"m 50 694 l 50 0 l 386 0 l 386 694 z m -53 1003 b 221 758 -36 843 65 758 b 494 1003 376 758 476 843 l 289 1003 b 221 922 285 947 256 922 b 153 1003 183 922 154 953 z "},"î":{"ha":436,"x_min":0,"x_max":0,"o":"m 50 694 l 50 0 l 386 0 l 386 694 z m 63 1003 l -96 767 l 157 767 l 218 872 l 279 767 l 532 767 l 374 1003 z "},"ĩ":{"ha":436,"x_min":0,"x_max":0,"o":"m 50 694 l 50 0 l 386 0 l 386 694 z m 346 994 b 314 956 344 967 331 956 b 207 983 286 956 254 971 b 93 1003 167 994 124 1003 b -82 799 -17 1003 -82 919 l -82 775 l 90 775 b 117 814 90 801 101 814 b 206 792 146 814 178 799 b 325 767 244 782 285 767 b 518 994 454 767 518 838 z "},"ï":{"ha":436,"x_min":0,"x_max":0,"o":"m 50 694 l 50 0 l 386 0 l 386 694 z m -62 1003 l -62 767 l 165 767 l 165 1003 z m 271 1003 l 271 767 l 499 767 l 499 1003 z "},"ī":{"ha":436,"x_min":0,"x_max":0,"o":"m 50 694 l 50 0 l 386 0 l 386 694 z m -79 971 l -79 807 l 515 807 l 515 971 z "},"į":{"ha":436,"x_min":0,"x_max":0,"o":"m 53 1003 l 53 790 l 383 790 l 383 1003 z m 53 694 l 53 0 l 186 0 b 0 -200 64 -49 0 -121 b 183 -322 0 -285 57 -322 b 353 -299 233 -322 301 -314 l 329 -204 b 246 -219 300 -215 269 -219 b 172 -158 197 -219 172 -196 b 325 0 172 -110 224 -60 l 383 0 l 383 694 z "},"ȷ":{"ha":436,"x_min":0,"x_max":0,"o":"m 51 694 l 51 15 b 25 -78 51 -26 46 -60 b -35 -92 13 -89 -11 -92 b -69 -90 -43 -92 -54 -92 l -69 -265 b 56 -269 -32 -268 0 -269 b 324 -206 217 -269 276 -249 b 382 -22 367 -167 382 -111 l 382 694 z "},"ĵ":{"ha":436,"x_min":0,"x_max":0,"o":"m 51 694 l 51 15 b 25 -78 51 -26 46 -60 b -35 -92 13 -89 -11 -92 b -69 -90 -43 -92 -54 -92 l -69 -265 b 56 -269 -32 -268 0 -269 b 324 -206 217 -269 276 -249 b 382 -22 367 -167 382 -111 l 382 694 z m 68 1003 l -90 767 l 163 767 l 224 872 l 285 767 l 538 767 l 379 1003 z "},"ķ":{"ha":875,"x_min":0,"x_max":0,"o":"m 49 1003 l 49 0 l 382 0 l 382 364 l 524 0 l 890 0 l 682 399 l 875 694 l 513 694 l 382 428 l 382 1003 z m 304 -69 l 232 -322 l 421 -322 l 617 -69 z "},"ĸ":{"ha":875,"x_min":0,"x_max":0,"o":"m 50 697 l 50 0 l 386 0 l 386 364 l 389 364 l 528 0 l 892 0 l 683 399 l 878 697 l 514 697 l 389 428 l 386 428 l 386 697 z "},"ĺ":{"ha":436,"x_min":0,"x_max":0,"o":"m 53 1003 l 53 0 l 383 0 l 383 1003 z m 214 1308 l 78 1072 l 322 1072 l 536 1308 z "},"ľ":{"ha":436,"x_min":0,"x_max":0,"o":"m 53 1003 l 53 0 l 383 0 l 383 1003 z m 490 1003 l 432 750 l 621 750 l 803 1003 z "},"ļ":{"ha":436,"x_min":0,"x_max":0,"o":"m 53 1003 l 53 0 l 383 0 l 383 1003 z m 64 -69 l -8 -322 l 181 -322 l 376 -69 z "},"ł":{"ha":486,"x_min":0,"x_max":0,"o":"m 76 1003 l 76 438 l 25 394 l 25 188 l 76 231 l 76 0 l 407 0 l 407 517 l 457 563 l 457 771 l 407 728 l 407 1003 z "},"ŀ":{"ha":675,"x_min":0,"x_max":0,"o":"m 53 1003 l 53 0 l 383 0 l 383 1003 z m 440 669 l 440 433 l 668 433 l 668 669 z "},"ń":{"ha":900,"x_min":0,"x_max":0,"o":"m 850 432 b 828 593 850 497 844 553 b 607 717 789 688 696 717 b 382 592 500 717 432 679 l 375 694 l 51 694 l 51 0 l 390 0 l 390 425 b 453 508 390 475 410 508 b 514 429 496 508 514 475 l 514 0 l 850 0 z m 425 1003 l 289 767 l 533 767 l 747 1003 z "},"ň":{"ha":900,"x_min":0,"x_max":0,"o":"m 850 432 b 828 593 850 497 844 553 b 607 717 789 688 696 717 b 382 592 500 717 432 679 l 375 694 l 51 694 l 51 0 l 390 0 l 390 425 b 453 508 390 475 410 508 b 514 429 496 508 514 475 l 514 0 l 850 0 z m 138 1003 l 296 767 l 607 767 l 765 1003 l 513 1003 l 451 897 l 390 1003 z "},"ñ":{"ha":900,"x_min":0,"x_max":0,"o":"m 850 432 b 828 593 850 497 844 553 b 607 717 789 688 696 717 b 382 592 500 717 432 679 l 375 694 l 51 694 l 51 0 l 390 0 l 390 425 b 453 508 390 475 410 508 b 514 429 496 508 514 475 l 514 0 l 850 0 z m 579 994 b 547 956 578 967 564 956 b 440 983 519 956 488 971 b 326 1003 400 994 357 1003 b 151 799 217 1003 151 919 l 151 775 l 324 775 b 350 814 324 801 335 814 b 439 792 379 814 411 799 b 558 767 478 782 518 767 b 751 994 688 767 751 838 z "},"ņ":{"ha":900,"x_min":0,"x_max":0,"o":"m 850 432 b 828 593 850 497 844 553 b 607 717 789 688 696 717 b 382 592 500 717 432 679 l 375 694 l 51 694 l 51 0 l 390 0 l 390 425 b 453 508 390 475 410 508 b 514 429 496 508 514 475 l 514 0 l 850 0 z m 324 -69 l 251 -322 l 440 -322 l 636 -69 z "},"ŉ":{"ha":900,"x_min":0,"x_max":0,"o":"m -33 1003 l -92 750 l 97 750 l 279 1003 z m 850 432 b 828 593 850 497 844 553 b 607 717 789 688 696 717 b 382 592 500 717 432 679 l 375 694 l 51 694 l 51 0 l 390 0 l 390 425 b 453 508 390 475 410 508 b 514 429 496 508 514 475 l 514 0 l 850 0 z "},"ò":{"ha":925,"x_min":0,"x_max":0,"o":"m 889 350 b 454 724 889 590 731 724 b 35 349 193 724 35 586 b 442 -22 35 115 192 -22 b 889 350 740 -22 889 106 z m 461 163 b 388 328 417 163 388 185 l 388 385 b 463 538 388 494 417 538 b 540 372 517 538 540 489 l 540 336 b 461 163 540 200 510 163 z m 146 1003 l 360 767 l 606 767 l 472 1003 z "},"ó":{"ha":925,"x_min":0,"x_max":0,"o":"m 889 350 b 454 724 889 590 731 724 b 35 349 193 724 35 586 b 442 -22 35 115 192 -22 b 889 350 740 -22 889 106 z m 461 163 b 388 328 417 163 388 185 l 388 385 b 463 538 388 494 417 538 b 540 372 517 538 540 489 l 540 336 b 461 163 540 200 510 163 z m 442 1003 l 306 767 l 550 767 l 764 1003 z "},"ô":{"ha":925,"x_min":0,"x_max":0,"o":"m 889 350 b 454 724 889 590 731 724 b 35 349 193 724 35 586 b 442 -22 35 115 192 -22 b 889 350 740 -22 889 106 z m 461 163 b 388 328 417 163 388 185 l 388 385 b 463 538 388 494 417 538 b 540 372 517 538 540 489 l 540 336 b 461 163 540 200 510 163 z m 307 1003 l 149 767 l 401 767 l 463 872 l 524 767 l 776 767 l 618 1003 z "},"õ":{"ha":925,"x_min":0,"x_max":0,"o":"m 889 350 b 454 724 889 590 731 724 b 35 349 193 724 35 586 b 442 -22 35 115 192 -22 b 889 350 740 -22 889 106 z m 461 163 b 388 328 417 163 388 185 l 388 385 b 463 538 388 494 417 538 b 540 372 517 538 540 489 l 540 336 b 461 163 540 200 510 163 z m 590 994 b 558 956 589 967 575 956 b 451 983 531 956 499 971 b 338 1003 411 994 368 1003 b 163 799 228 1003 163 919 l 163 775 l 335 775 b 361 814 335 801 346 814 b 450 792 390 814 422 799 b 569 767 489 782 529 767 b 763 994 699 767 763 838 z "},"ö":{"ha":925,"x_min":0,"x_max":0,"o":"m 889 350 b 454 724 889 590 731 724 b 35 349 193 724 35 586 b 442 -22 35 115 192 -22 b 889 350 740 -22 889 106 z m 461 163 b 388 328 417 163 388 185 l 388 385 b 463 538 388 494 417 538 b 540 372 517 538 540 489 l 540 336 b 461 163 540 200 510 163 z m 182 1003 l 182 767 l 410 767 l 410 1003 z m 515 1003 l 515 767 l 743 767 l 743 1003 z "},"ō":{"ha":925,"x_min":0,"x_max":0,"o":"m 889 350 b 454 724 889 590 731 724 b 35 349 193 724 35 586 b 442 -22 35 115 192 -22 b 889 350 740 -22 889 106 z m 461 163 b 388 328 417 163 388 185 l 388 385 b 463 538 388 494 417 538 b 540 372 517 538 540 489 l 540 336 b 461 163 540 200 510 163 z m 165 971 l 165 807 l 760 807 l 760 971 z "},"ŏ":{"ha":925,"x_min":0,"x_max":0,"o":"m 889 350 b 454 724 889 590 731 724 b 35 349 193 724 35 586 b 442 -22 35 115 192 -22 b 889 350 740 -22 889 106 z m 461 163 b 388 328 417 163 388 185 l 388 385 b 463 538 388 494 417 538 b 540 372 517 538 540 489 l 540 336 b 461 163 540 200 510 163 z m 189 1003 b 463 758 206 843 307 758 b 736 1003 618 758 718 843 l 531 1003 b 463 922 526 947 497 922 b 394 1003 425 922 396 953 z "},"ő":{"ha":925,"x_min":0,"x_max":0,"o":"m 889 350 b 454 724 889 590 731 724 b 35 349 193 724 35 586 b 442 -22 35 115 192 -22 b 889 350 740 -22 889 106 z m 461 163 b 388 328 417 163 388 185 l 388 385 b 463 538 388 494 417 538 b 540 372 517 538 540 489 l 540 336 b 461 163 540 200 510 163 z m 265 1003 l 129 767 l 374 767 l 588 1003 z m 668 1003 l 532 767 l 776 767 l 990 1003 z "},"ø":{"ha":925,"x_min":0,"x_max":0,"o":"m 651 696 b 447 724 590 714 519 724 b 33 349 192 724 33 578 b 157 65 33 228 74 133 l 74 -44 l 172 -124 l 269 4 b 443 -22 326 -14 381 -22 b 888 350 733 -22 888 104 b 764 635 888 474 849 567 l 846 738 l 744 813 z m 369 343 b 464 551 369 489 388 551 b 525 532 492 551 510 544 l 369 332 z m 558 347 b 460 161 558 208 528 161 b 407 178 439 161 422 167 l 558 371 z "},"ǿ":{"ha":925,"x_min":0,"x_max":0,"o":"m 651 696 b 447 724 590 714 519 724 b 33 349 192 724 33 578 b 157 65 33 228 74 133 l 74 -44 l 172 -124 l 269 4 b 443 -22 326 -14 381 -22 b 888 350 733 -22 888 104 b 764 635 888 474 849 567 l 846 738 l 744 813 z m 369 343 b 464 551 369 489 388 551 b 525 532 492 551 510 544 l 369 332 z m 558 347 b 460 161 558 208 528 161 b 407 178 439 161 422 167 l 558 371 z m 442 1003 l 306 767 l 550 767 l 764 1003 z "},"œ":{"ha":1311,"x_min":0,"x_max":0,"o":"m 426 724 b 28 336 182 724 28 565 b 413 -26 28 114 178 -26 b 660 61 519 -26 603 0 b 911 -26 726 -1 794 -26 b 1272 225 1122 -26 1246 57 l 981 225 b 894 142 975 171 943 142 b 801 260 840 142 801 176 l 801 286 l 1282 286 b 1283 338 1283 296 1283 314 b 907 724 1283 594 1142 724 b 668 646 803 724 731 700 b 426 724 603 700 525 724 z m 804 435 l 804 444 b 893 551 804 515 838 551 b 982 450 950 551 982 515 l 982 435 z m 358 342 b 443 538 358 493 383 538 b 524 364 508 538 524 488 b 439 164 524 192 501 164 b 358 342 379 164 358 218 z "},"ŕ":{"ha":617,"x_min":0,"x_max":0,"o":"m 614 685 b 525 704 592 696 551 704 b 382 621 479 704 433 678 l 375 694 l 51 694 l 51 0 l 392 0 l 392 343 b 489 443 392 408 417 443 b 553 438 510 443 539 440 l 614 425 z m 240 1003 l 104 767 l 349 767 l 563 1003 z "},"ř":{"ha":617,"x_min":0,"x_max":0,"o":"m 614 685 b 525 704 592 696 551 704 b 382 621 479 704 433 678 l 375 694 l 51 694 l 51 0 l 392 0 l 392 343 b 489 443 392 408 417 443 b 553 438 510 443 539 440 l 614 425 z m -43 1003 l 115 767 l 426 767 l 585 1003 l 332 1003 l 271 897 l 210 1003 z "},"ŗ":{"ha":617,"x_min":0,"x_max":0,"o":"m 614 685 b 525 704 592 696 551 704 b 382 621 479 704 433 678 l 375 694 l 51 694 l 51 0 l 392 0 l 392 343 b 489 443 392 408 417 443 b 553 438 510 443 539 440 l 614 425 z m 69 -76 l -3 -329 l 186 -329 l 382 -76 z "},"ś":{"ha":822,"x_min":0,"x_max":0,"o":"m 769 486 b 413 721 769 642 647 721 b 43 479 167 721 43 636 b 321 267 43 351 128 290 b 485 193 447 251 485 238 b 414 131 485 153 463 131 b 338 225 363 131 338 158 l 31 225 l 31 219 b 393 -26 31 72 133 -26 b 719 56 564 -26 653 -1 b 790 221 765 94 790 149 b 710 382 790 301 760 353 b 535 438 664 408 603 425 b 342 511 386 463 342 463 b 410 565 342 549 365 565 b 481 486 463 565 481 543 z m 381 1003 l 244 767 l 489 767 l 703 1003 z "},"ŝ":{"ha":822,"x_min":0,"x_max":0,"o":"m 769 486 b 413 721 769 642 647 721 b 43 479 167 721 43 636 b 321 267 43 351 128 290 b 485 193 447 251 485 238 b 414 131 485 153 463 131 b 338 225 363 131 338 158 l 31 225 l 31 219 b 393 -26 31 72 133 -26 b 719 56 564 -26 653 -1 b 790 221 765 94 790 149 b 710 382 790 301 760 353 b 535 438 664 408 603 425 b 342 511 386 463 342 463 b 410 565 342 549 365 565 b 481 486 463 565 481 543 z m 254 1003 l 96 767 l 349 767 l 410 872 l 471 767 l 724 767 l 565 1003 z "},"š":{"ha":822,"x_min":0,"x_max":0,"o":"m 769 486 b 413 721 769 642 647 721 b 43 479 167 721 43 636 b 321 267 43 351 128 290 b 485 193 447 251 485 238 b 414 131 485 153 463 131 b 338 225 363 131 338 158 l 31 225 l 31 219 b 393 -26 31 72 133 -26 b 719 56 564 -26 653 -1 b 790 221 765 94 790 149 b 710 382 790 301 760 353 b 535 438 664 408 603 425 b 342 511 386 463 342 463 b 410 565 342 549 365 565 b 481 486 463 565 481 543 z m 96 1003 l 254 767 l 565 767 l 724 1003 l 471 1003 l 410 897 l 349 1003 z "},"ş":{"ha":822,"x_min":0,"x_max":0,"o":"m 769 486 b 413 721 769 642 647 721 b 43 479 167 721 43 636 b 321 267 43 351 131 288 b 485 193 444 253 485 238 b 414 131 485 153 463 131 b 338 225 363 131 338 158 l 31 225 l 31 221 b 347 -25 31 75 129 -15 l 290 -128 l 343 -169 b 386 -160 360 -164 375 -160 b 442 -197 415 -160 442 -175 b 369 -244 442 -224 408 -244 b 246 -211 335 -244 290 -232 l 208 -300 b 401 -339 258 -324 329 -339 b 606 -192 525 -339 606 -279 b 474 -74 606 -124 551 -74 b 431 -78 461 -74 447 -75 l 460 -25 b 790 221 678 -18 790 71 b 531 438 790 364 700 408 b 342 511 389 461 342 463 b 410 565 342 549 365 565 b 481 493 461 565 481 543 l 481 486 z "},"ș":{"ha":822,"x_min":0,"x_max":0,"o":"m 769 486 b 413 721 769 642 647 721 b 43 479 167 721 43 636 b 321 267 43 351 128 290 b 485 193 447 251 485 238 b 414 131 485 153 463 131 b 338 225 363 131 338 158 l 31 225 l 31 219 b 393 -26 31 72 133 -26 b 719 56 564 -26 653 -1 b 790 221 765 94 790 149 b 710 382 790 301 760 353 b 535 438 664 408 603 425 b 342 511 386 463 342 463 b 410 565 342 549 365 565 b 481 486 463 565 481 543 z m 269 -69 l 197 -322 l 386 -322 l 582 -69 z "},"ß":{"ha":1053,"x_min":0,"x_max":0,"o":"m 939 788 b 501 1031 939 942 785 1031 b 49 708 179 1031 49 925 l 49 0 l 383 0 l 383 672 b 519 857 383 783 432 857 b 614 785 576 857 614 828 b 532 672 614 747 581 711 b 460 536 482 632 460 593 b 533 401 460 507 461 463 b 629 336 557 382 589 363 b 739 226 708 286 739 258 l 739 219 b 697 167 739 188 724 167 b 654 228 668 167 654 190 l 654 235 l 414 235 b 432 104 414 186 418 140 b 688 -26 465 15 546 -26 b 1043 249 910 -26 1043 78 b 893 463 1043 324 1022 383 b 789 553 792 525 789 540 b 813 593 789 567 797 578 b 929 722 860 638 908 672 b 939 788 938 742 939 763 z "},"ť":{"ha":592,"x_min":0,"x_max":0,"o":"m 428 926 l 99 810 l 99 694 l 7 694 l 7 489 l 100 489 l 100 194 b 161 31 100 97 122 64 b 353 -22 206 -8 289 -22 b 572 7 425 -22 499 -10 l 572 213 b 486 201 543 206 507 201 b 428 279 440 201 428 228 l 428 489 l 585 489 l 585 694 l 428 694 z m 536 1003 l 478 750 l 667 750 l 849 1003 z "},"ţ":{"ha":592,"x_min":0,"x_max":0,"o":"m 428 926 l 99 810 l 99 694 l 7 694 l 7 489 l 100 489 l 100 194 b 161 31 100 97 122 64 b 353 -22 206 -8 289 -22 b 572 7 425 -22 499 -10 l 572 213 b 486 201 543 206 507 201 b 428 279 440 201 428 228 l 428 489 l 585 489 l 585 694 l 428 694 z m 153 -69 l 81 -322 l 269 -322 l 465 -69 z "},"ț":{"ha":592,"x_min":0,"x_max":0,"o":"m 428 926 l 99 810 l 99 694 l 7 694 l 7 489 l 100 489 l 100 194 b 161 31 100 97 122 64 b 353 -22 206 -8 289 -22 b 572 7 425 -22 499 -10 l 572 213 b 486 201 543 206 507 201 b 428 279 440 201 428 228 l 428 489 l 585 489 l 585 694 l 428 694 z m 153 -69 l 81 -322 l 269 -322 l 465 -69 z "},"ŧ":{"ha":592,"x_min":0,"x_max":0,"o":"m 428 926 l 99 810 l 99 694 l 7 694 l 7 517 l 100 517 l 100 465 l 7 465 l 7 288 l 100 288 l 100 199 b 133 58 100 117 110 94 b 353 -22 169 6 261 -22 b 572 7 425 -22 499 -10 l 572 213 b 486 201 543 206 507 201 b 428 288 440 201 428 225 l 585 288 l 585 465 l 428 465 l 428 517 l 585 517 l 585 694 l 428 694 z "},"þ":{"ha":925,"x_min":0,"x_max":0,"o":"m 54 1003 l 54 -267 l 394 -267 l 394 61 b 601 -24 451 -1 514 -24 b 883 335 778 -24 883 113 b 589 717 883 575 772 717 b 382 614 499 717 432 685 l 382 1003 z m 465 176 b 389 342 403 176 389 219 b 461 517 389 474 399 517 b 542 347 522 517 542 471 b 465 176 542 221 526 176 z "},"ù":{"ha":900,"x_min":0,"x_max":0,"o":"m 50 694 l 50 261 b 74 99 50 199 54 143 b 293 -22 108 21 181 -22 b 518 103 397 -22 467 14 l 525 0 l 849 0 l 849 694 l 510 694 l 510 271 b 447 186 510 217 492 186 b 386 264 404 186 386 218 l 386 694 z m 119 1003 l 333 767 l 579 767 l 446 1003 z "},"ú":{"ha":900,"x_min":0,"x_max":0,"o":"m 50 694 l 50 261 b 74 99 50 199 54 143 b 293 -22 108 21 181 -22 b 518 103 397 -22 467 14 l 525 0 l 849 0 l 849 694 l 510 694 l 510 271 b 447 186 510 217 492 186 b 386 264 404 186 386 218 l 386 694 z m 415 1003 l 279 767 l 524 767 l 738 1003 z "},"û":{"ha":900,"x_min":0,"x_max":0,"o":"m 50 694 l 50 261 b 74 99 50 199 54 143 b 293 -22 108 21 181 -22 b 518 103 397 -22 467 14 l 525 0 l 849 0 l 849 694 l 510 694 l 510 271 b 447 186 510 217 492 186 b 386 264 404 186 386 218 l 386 694 z m 294 1003 l 136 767 l 389 767 l 450 872 l 511 767 l 764 767 l 606 1003 z "},"ũ":{"ha":900,"x_min":0,"x_max":0,"o":"m 50 694 l 50 261 b 74 99 50 199 54 143 b 293 -22 108 21 181 -22 b 518 103 397 -22 467 14 l 525 0 l 849 0 l 849 694 l 510 694 l 510 271 b 447 186 510 217 492 186 b 386 264 404 186 386 218 l 386 694 z m 578 994 b 546 956 576 967 563 956 b 439 983 518 956 486 971 b 325 1003 399 994 356 1003 b 150 799 215 1003 150 919 l 150 775 l 322 775 b 349 814 322 801 333 814 b 438 792 378 814 410 799 b 557 767 476 782 517 767 b 750 994 686 767 750 838 z "},"ü":{"ha":900,"x_min":0,"x_max":0,"o":"m 50 694 l 50 261 b 74 99 50 199 54 143 b 293 -22 108 21 181 -22 b 518 103 397 -22 467 14 l 525 0 l 849 0 l 849 694 l 510 694 l 510 271 b 447 186 510 217 492 186 b 386 264 404 186 386 218 l 386 694 z m 169 1003 l 169 767 l 397 767 l 397 1003 z m 503 1003 l 503 767 l 731 767 l 731 1003 z "},"ū":{"ha":900,"x_min":0,"x_max":0,"o":"m 50 694 l 50 261 b 74 99 50 199 54 143 b 293 -22 108 21 181 -22 b 518 103 397 -22 467 14 l 525 0 l 849 0 l 849 694 l 510 694 l 510 271 b 447 186 510 217 492 186 b 386 264 404 186 386 218 l 386 694 z m 153 971 l 153 807 l 747 807 l 747 971 z "},"ŭ":{"ha":900,"x_min":0,"x_max":0,"o":"m 50 694 l 50 261 b 74 99 50 199 54 143 b 293 -22 108 21 181 -22 b 518 103 397 -22 467 14 l 525 0 l 849 0 l 849 694 l 510 694 l 510 271 b 447 186 510 217 492 186 b 386 264 404 186 386 218 l 386 694 z m 176 1003 b 450 758 193 843 294 758 b 724 1003 606 758 706 843 l 518 1003 b 450 922 514 947 485 922 b 382 1003 413 922 383 953 z "},"ů":{"ha":900,"x_min":0,"x_max":0,"o":"m 50 694 l 50 261 b 74 99 50 199 54 143 b 293 -22 108 21 181 -22 b 518 103 397 -22 467 14 l 525 0 l 849 0 l 849 694 l 510 694 l 510 271 b 447 186 510 217 492 186 b 386 264 404 186 386 218 l 386 694 z m 632 946 b 450 1128 632 1044 549 1128 b 268 946 353 1128 268 1047 b 450 764 268 846 350 764 b 632 946 551 764 632 849 z m 450 886 b 390 946 417 886 390 913 b 450 1006 390 979 417 1006 b 510 946 483 1006 510 979 b 450 886 510 913 483 886 z "},"ű":{"ha":900,"x_min":0,"x_max":0,"o":"m 50 694 l 50 261 b 74 99 50 199 54 143 b 293 -22 108 21 181 -22 b 518 103 397 -22 467 14 l 525 0 l 849 0 l 849 694 l 510 694 l 510 271 b 447 186 510 217 492 186 b 386 264 404 186 386 218 l 386 694 z m 263 1003 l 126 767 l 371 767 l 585 1003 z m 665 1003 l 529 767 l 774 767 l 988 1003 z "},"ų":{"ha":900,"x_min":0,"x_max":0,"o":"m 50 694 l 50 251 b 293 -22 50 54 131 -22 b 518 103 397 -22 467 14 l 525 0 l 668 0 b 482 -200 547 -49 482 -121 b 665 -322 482 -285 542 -322 b 835 -299 714 -322 783 -314 l 811 -204 b 728 -219 782 -215 751 -219 b 654 -158 682 -219 654 -196 b 807 0 654 -110 703 -61 l 849 0 l 849 694 l 510 694 l 510 271 b 447 186 510 219 492 186 b 386 264 404 186 386 218 l 386 694 z "},"ẃ":{"ha":1311,"x_min":0,"x_max":0,"o":"m -3 694 l 149 0 l 560 0 l 642 443 l 731 0 l 1139 0 l 1314 694 l 989 694 l 915 242 l 833 694 l 465 694 l 379 242 l 318 694 z m 654 1003 l 518 767 l 763 767 l 976 1003 z "},"ŵ":{"ha":1311,"x_min":0,"x_max":0,"o":"m -3 694 l 149 0 l 560 0 l 642 443 l 731 0 l 1139 0 l 1314 694 l 989 694 l 915 242 l 833 694 l 465 694 l 379 242 l 318 694 z m 490 1003 l 332 767 l 585 767 l 646 872 l 707 767 l 960 767 l 801 1003 z "},"ẅ":{"ha":1311,"x_min":0,"x_max":0,"o":"m -3 694 l 149 0 l 560 0 l 642 443 l 731 0 l 1139 0 l 1314 694 l 989 694 l 915 242 l 833 694 l 465 694 l 379 242 l 318 694 z m 364 1003 l 364 767 l 592 767 l 592 1003 z m 697 1003 l 697 767 l 925 767 l 925 1003 z "},"ẁ":{"ha":1311,"x_min":0,"x_max":0,"o":"m -3 694 l 149 0 l 560 0 l 642 443 l 731 0 l 1139 0 l 1314 694 l 989 694 l 915 242 l 833 694 l 465 694 l 379 242 l 318 694 z m 340 1003 l 554 767 l 800 767 l 667 1003 z "},"ý":{"ha":875,"x_min":0,"x_max":0,"o":"m -4 694 l 279 -21 l 188 -267 l 550 -267 l 881 694 l 546 694 l 451 314 l 354 694 z m 417 1003 l 281 767 l 525 767 l 739 1003 z "},"ŷ":{"ha":875,"x_min":0,"x_max":0,"o":"m -4 694 l 279 -21 l 188 -267 l 550 -267 l 881 694 l 546 694 l 451 314 l 354 694 z m 293 1003 l 135 767 l 388 767 l 449 872 l 510 767 l 763 767 l 604 1003 z "},"ÿ":{"ha":875,"x_min":0,"x_max":0,"o":"m -4 694 l 279 -21 l 188 -267 l 550 -267 l 881 694 l 546 694 l 451 314 l 354 694 z m 171 1003 l 171 767 l 399 767 l 399 1003 z m 504 1003 l 504 767 l 732 767 l 732 1003 z "},"ỳ":{"ha":875,"x_min":0,"x_max":0,"o":"m -4 694 l 279 -21 l 188 -267 l 550 -267 l 881 694 l 546 694 l 451 314 l 354 694 z m 147 1003 l 361 767 l 607 767 l 474 1003 z "},"ź":{"ha":744,"x_min":0,"x_max":0,"o":"m 54 694 l 54 472 l 278 472 l 35 193 l 35 0 l 711 0 l 711 225 l 467 225 l 688 476 l 688 694 z m 367 1003 l 231 767 l 475 767 l 689 1003 z "},"ž":{"ha":744,"x_min":0,"x_max":0,"o":"m 54 694 l 54 472 l 278 472 l 35 193 l 35 0 l 711 0 l 711 225 l 467 225 l 688 476 l 688 694 z m 60 1003 l 218 767 l 529 767 l 688 1003 l 435 1003 l 374 897 l 313 1003 z "},"ż":{"ha":744,"x_min":0,"x_max":0,"o":"m 54 694 l 54 472 l 278 472 l 35 193 l 35 0 l 711 0 l 711 225 l 467 225 l 688 476 l 688 694 z m 260 1003 l 260 767 l 488 767 l 488 1003 z "},"Ĳ":{"ha":1481,"x_min":0,"x_max":0,"o":"m 71 1003 l 71 0 l 467 0 l 467 1003 z m 1021 1003 l 1021 340 b 951 233 1021 263 997 233 b 888 311 910 233 888 263 b 889 331 888 317 888 324 l 553 331 l 553 289 b 974 -29 553 111 692 -29 b 1365 129 1153 -29 1296 31 b 1417 360 1400 178 1417 256 l 1417 1003 z "},"ĳ":{"ha":867,"x_min":0,"x_max":0,"o":"m 53 1003 l 53 790 l 383 790 l 383 1003 z m 53 694 l 53 0 l 383 0 l 383 694 z m 482 1003 l 482 790 l 813 790 l 813 1003 z m 482 694 l 482 15 b 456 -78 482 -26 476 -60 b 396 -92 443 -89 419 -92 b 361 -90 388 -92 376 -92 l 361 -265 b 486 -269 399 -268 431 -269 b 754 -206 647 -269 707 -249 b 813 -22 797 -167 813 -111 l 813 694 z "},"ﬁ":{"ha":978,"x_min":0,"x_max":0,"o":"m 544 993 b 361 1014 479 1006 399 1014 b 121 913 265 1014 169 979 b 76 744 90 871 76 810 l 76 694 l -6 694 l -6 489 l 76 489 l 76 0 l 408 0 l 408 489 l 532 489 l 532 694 l 408 694 l 408 736 b 478 800 408 781 422 800 b 544 797 494 800 522 799 z m 592 1003 l 592 790 l 922 790 l 922 1003 z m 592 694 l 592 0 l 922 0 l 922 694 z "},"ﬂ":{"ha":978,"x_min":0,"x_max":0,"o":"m 546 993 b 363 1014 481 1006 400 1014 b 122 913 267 1014 171 979 b 78 744 92 871 78 810 l 78 694 l -4 694 l -4 489 l 78 489 l 78 0 l 410 0 l 410 489 l 533 489 l 533 694 l 410 694 l 410 736 b 479 800 410 781 424 800 b 546 797 496 800 524 799 z m 592 1003 l 592 0 l 922 0 l 922 1003 z "},"ﬀ":{"ha":1051,"x_min":0,"x_max":0,"o":"m 544 992 b 360 1011 479 1007 397 1011 b 168 957 275 1011 214 990 b 75 757 108 915 75 854 l 75 697 l 0 697 l 0 492 l 75 492 l 75 0 l 411 0 l 411 492 l 588 492 l 588 0 l 924 0 l 924 492 l 1042 492 l 1042 697 l 924 697 l 924 736 b 993 797 924 781 939 797 b 1057 794 1010 797 1039 796 l 1057 992 b 876 1011 996 1007 914 1011 b 607 868 740 1011 646 957 b 588 747 593 835 588 801 l 588 697 l 411 697 l 411 731 b 478 797 411 775 422 797 b 544 794 494 797 522 796 z "},"ﬃ":{"ha":1490,"x_min":0,"x_max":0,"o":"m 544 992 b 360 1011 479 1007 397 1011 b 168 957 275 1011 214 990 b 75 757 108 915 75 854 l 75 697 l 0 697 l 0 492 l 75 492 l 75 0 l 411 0 l 411 492 l 588 492 l 588 0 l 924 0 l 924 492 l 1042 492 l 1042 697 l 924 697 l 924 736 b 993 797 924 781 939 797 b 1057 794 1010 797 1039 796 l 1057 992 b 876 1011 996 1007 914 1011 b 607 868 740 1011 646 957 b 588 747 593 835 588 801 l 588 697 l 411 697 l 411 731 b 478 797 411 775 422 797 b 544 794 494 797 522 796 z m 1107 1003 l 1107 790 l 1438 790 l 1438 1003 z m 1107 694 l 1107 0 l 1438 0 l 1438 694 z "},"ﬄ":{"ha":1489,"x_min":0,"x_max":0,"o":"m 544 992 b 360 1011 479 1007 397 1011 b 168 957 275 1011 214 990 b 75 757 108 915 75 854 l 75 697 l 0 697 l 0 492 l 75 492 l 75 0 l 411 0 l 411 492 l 588 492 l 588 0 l 924 0 l 924 492 l 1042 492 l 1042 697 l 924 697 l 924 736 b 993 797 924 781 939 797 b 1057 794 1010 797 1039 796 l 1057 992 b 876 1011 996 1007 914 1011 b 607 868 740 1011 646 957 b 588 747 593 835 588 801 l 588 697 l 411 697 l 411 731 b 478 797 411 775 422 797 b 544 794 494 797 522 796 z m 1108 1003 l 1108 0 l 1439 0 l 1439 1003 z "},"´":{"ha":386,"x_min":0,"x_max":0,"o":"m 158 1003 l 22 767 l 267 767 l 481 1003 z "},"ˆ":{"ha":386,"x_min":0,"x_max":0,"o":"m 38 1003 l -121 767 l 132 767 l 193 872 l 254 767 l 507 767 l 349 1003 z "},"ˇ":{"ha":386,"x_min":0,"x_max":0,"o":"m -121 1003 l 38 767 l 349 767 l 507 1003 l 254 1003 l 193 897 l 132 1003 z "},"˜":{"ha":386,"x_min":0,"x_max":0,"o":"m 321 994 b 289 956 319 967 306 956 b 182 983 261 956 229 971 b 68 1003 142 994 99 1003 b -107 799 -42 1003 -107 919 l -107 775 l 65 775 b 92 814 65 801 76 814 b 181 792 121 814 153 799 b 300 767 219 782 260 767 b 493 994 429 767 493 838 z "},"¨":{"ha":386,"x_min":0,"x_max":0,"o":"m -87 1003 l -87 767 l 140 767 l 140 1003 z m 246 1003 l 246 767 l 474 767 l 474 1003 z "},"¯":{"ha":386,"x_min":0,"x_max":0,"o":"m -104 971 l -104 807 l 490 807 l 490 971 z "},"ˉ":{"ha":386,"x_min":0,"x_max":0,"o":"m -104 971 l -104 807 l 490 807 l 490 971 z "},"˘":{"ha":386,"x_min":0,"x_max":0,"o":"m -81 1003 b 193 758 -64 843 38 758 b 467 1003 349 758 449 843 l 261 1003 b 193 922 257 947 228 922 b 125 1003 156 922 126 953 z "},"˚":{"ha":386,"x_min":0,"x_max":0,"o":"m 375 946 b 193 1128 375 1044 292 1128 b 11 946 96 1128 11 1047 b 193 764 11 846 93 764 b 375 946 294 764 375 849 z m 193 886 b 133 946 160 886 133 913 b 193 1006 133 979 160 1006 b 253 946 226 1006 253 979 b 193 886 253 913 226 886 z "},"˝":{"ha":386,"x_min":0,"x_max":0,"o":"m -99 1003 l -235 767 l 10 767 l 224 1003 z m 304 1003 l 168 767 l 413 767 l 626 1003 z "},"˙":{"ha":386,"x_min":0,"x_max":0,"o":"m 79 1003 l 79 767 l 307 767 l 307 1003 z "},"¸":{"ha":386,"x_min":0,"x_max":0,"o":"m 147 0 l 76 -128 l 129 -169 b 174 -160 146 -164 163 -160 b 228 -197 201 -160 228 -175 b 156 -244 228 -224 194 -244 b 32 -211 121 -244 76 -232 l -6 -300 b 186 -339 43 -324 115 -339 b 392 -192 313 -339 392 -279 b 260 -74 392 -121 338 -74 b 217 -78 247 -74 232 -75 l 261 0 z "},"˛":{"ha":386,"x_min":0,"x_max":0,"o":"m 253 0 b 67 -200 132 -46 67 -121 b 251 -322 67 -285 124 -322 b 419 -299 300 -322 368 -314 l 396 -204 b 313 -219 368 -215 339 -219 b 239 -158 264 -219 239 -196 b 392 0 239 -110 290 -61 z "},"…":{"ha":1389,"x_min":0,"x_max":0,"o":"m 64 286 l 64 0 l 400 0 l 400 286 z m 526 286 l 526 0 l 863 0 l 863 286 z m 989 286 l 989 0 l 1325 0 l 1325 286 z "},"­":{"ha":565,"x_min":0,"x_max":0,"o":"m 40 485 l 40 253 l 525 253 l 525 485 z "},"¡":{"ha":514,"x_min":0,"x_max":0,"o":"m 89 746 l 89 518 l 425 518 l 425 746 z m 118 453 l 58 -257 l 456 -257 l 396 453 z "},"¿":{"ha":746,"x_min":0,"x_max":0,"o":"m 283 746 l 283 518 l 619 518 l 619 746 z m 283 457 l 283 396 b 236 293 283 356 279 331 l 107 182 b 28 -7 54 136 28 72 b 411 -283 28 -186 185 -283 b 704 -233 496 -283 611 -265 l 704 28 b 519 -14 638 1 571 -14 b 422 54 457 -14 422 10 b 463 132 422 69 432 101 l 557 228 b 619 364 596 268 619 307 l 619 457 z "},"‘":{"ha":489,"x_min":0,"x_max":0,"o":"m 192 1003 l 31 588 l 353 588 l 457 1003 z "},"’":{"ha":489,"x_min":0,"x_max":0,"o":"m 136 1003 l 32 588 l 297 588 l 458 1003 z "},"“":{"ha":822,"x_min":0,"x_max":0,"o":"m 168 1003 l 7 588 l 329 588 l 433 1003 z m 550 1003 l 390 588 l 711 588 l 815 1003 z "},"”":{"ha":822,"x_min":0,"x_max":0,"o":"m 111 1003 l 7 588 l 272 588 l 433 1003 z m 494 1003 l 390 588 l 656 588 l 815 1003 z "},"‚":{"ha":489,"x_min":0,"x_max":0,"o":"m 136 289 l 32 -125 l 297 -125 l 458 289 z "},"„":{"ha":822,"x_min":0,"x_max":0,"o":"m 110 289 l 6 -125 l 271 -125 l 432 289 z m 493 289 l 389 -125 l 654 -125 l 814 289 z "},"‹":{"ha":489,"x_min":0,"x_max":0,"o":"m 213 694 l 1 347 l 213 0 l 482 0 l 329 347 l 482 694 z "},"›":{"ha":489,"x_min":0,"x_max":0,"o":"m 7 694 l 160 344 l 7 0 l 276 0 l 488 344 l 276 694 z "},"«":{"ha":900,"x_min":0,"x_max":0,"o":"m 218 694 l 8 347 l 218 0 l 489 0 l 336 347 l 489 694 z m 607 694 l 397 347 l 607 0 l 878 0 l 725 347 l 878 694 z "},"»":{"ha":900,"x_min":0,"x_max":0,"o":"m 22 694 l 175 347 l 22 0 l 293 0 l 503 347 l 293 694 z m 411 694 l 564 347 l 411 0 l 682 0 l 892 347 l 682 694 z "},"–":{"ha":694,"x_min":0,"x_max":0,"o":"m 0 485 l 0 253 l 694 253 l 694 485 z "},"—":{"ha":1389,"x_min":0,"x_max":0,"o":"m 0 485 l 0 253 l 1389 253 l 1389 485 z "},"•":{"ha":694,"x_min":0,"x_max":0,"o":"m 347 751 b 96 500 213 751 96 640 b 347 249 96 360 213 249 b 599 500 485 249 599 363 b 347 751 599 636 483 751 z "},"·":{"ha":489,"x_min":0,"x_max":0,"o":"m 75 542 l 75 253 l 413 253 l 413 542 z "},"∙":{"ha":489,"x_min":0,"x_max":0,"o":"m 75 542 l 75 253 l 413 253 l 413 542 z "},"†":{"ha":978,"x_min":0,"x_max":0,"o":"m 347 1003 l 347 800 l 121 800 l 121 572 l 347 572 l 347 0 l 632 0 l 632 572 l 857 572 l 857 800 l 632 800 l 632 1003 z "},"‡":{"ha":978,"x_min":0,"x_max":0,"o":"m 353 1003 l 353 836 l 121 836 l 121 624 l 353 624 l 353 374 l 121 374 l 121 157 l 353 157 l 353 0 l 625 0 l 625 157 l 857 157 l 857 374 l 625 374 l 625 624 l 857 624 l 857 836 l 625 836 l 625 1003 z "},"§":{"ha":978,"x_min":0,"x_max":0,"o":"m 508 1025 b 151 821 254 1025 151 953 b 271 664 151 743 194 688 b 114 482 175 643 114 571 b 271 293 114 393 160 336 b 426 199 382 249 426 236 b 364 151 426 169 403 151 b 142 200 315 151 238 167 l 142 13 b 467 -26 240 -11 363 -26 b 807 178 693 -26 807 43 b 706 326 807 246 772 297 b 864 531 811 361 864 431 b 697 735 864 626 821 686 b 543 817 557 790 543 800 b 599 849 543 844 571 849 b 782 819 644 849 715 838 l 782 997 b 508 1025 689 1013 601 1025 z m 394 521 b 461 596 394 546 411 568 b 593 507 532 575 593 551 b 524 422 593 475 567 443 b 394 521 435 457 394 486 z "},"¶":{"ha":861,"x_min":0,"x_max":0,"o":"m 388 1003 b 22 643 175 1003 22 867 b 292 332 22 453 113 354 l 292 -267 l 503 -267 l 503 828 l 600 828 l 600 -267 l 811 -267 l 811 1003 z "},"¦":{"ha":308,"x_min":0,"x_max":0,"o":"m 46 1029 l 46 621 l 263 621 l 263 1029 z m 46 382 l 46 -26 l 263 -26 l 263 382 z "},"©":{"ha":1111,"x_min":0,"x_max":0,"o":"m 556 1029 b 28 501 260 1029 28 788 b 556 -26 28 215 258 -26 b 1083 501 853 -26 1083 215 b 556 1029 1083 788 853 1029 z m 192 501 b 554 865 192 700 351 865 b 919 501 761 865 919 699 b 556 138 919 297 753 138 b 192 501 356 138 192 300 z m 560 794 b 279 500 390 794 279 674 b 563 207 279 331 396 207 b 811 425 693 207 793 286 l 664 425 b 554 338 657 363 614 338 b 435 503 486 338 435 404 b 556 664 435 601 479 664 b 664 585 615 664 653 642 l 811 585 b 560 794 783 719 692 794 z "},"®":{"ha":556,"x_min":0,"x_max":0,"o":"m 278 1029 b 22 774 135 1029 22 914 b 278 519 22 639 132 519 b 532 774 415 519 532 632 b 278 1029 532 914 419 1029 z m 79 774 b 276 972 79 885 167 972 b 475 774 390 972 475 879 b 278 576 475 667 388 576 b 79 774 167 576 79 665 z m 165 917 l 165 631 l 253 631 l 253 726 l 265 726 b 314 685 304 726 314 713 l 314 664 b 319 631 314 654 315 640 l 404 631 b 399 657 401 638 400 647 l 397 690 b 353 761 396 725 383 749 b 401 831 386 772 401 793 b 283 917 401 888 367 917 z m 253 853 l 271 853 b 314 824 300 853 314 844 b 271 792 314 801 299 792 l 253 792 z "},"™":{"ha":1389,"x_min":0,"x_max":0,"o":"m 106 1003 l 106 888 l 249 888 l 249 508 l 396 508 l 396 888 l 539 888 l 539 1003 z m 581 1003 l 581 508 l 718 508 l 718 871 l 828 508 l 938 508 l 1047 871 l 1047 508 l 1183 508 l 1183 1003 l 961 1003 l 882 739 l 803 1003 z "},"¤":{"ha":978,"x_min":0,"x_max":0,"o":"m 122 772 l 203 692 b 144 501 164 638 144 572 b 199 318 144 433 165 369 l 122 242 l 224 140 l 299 215 b 489 157 354 176 417 157 b 679 215 560 157 624 176 l 754 140 l 856 242 l 779 318 b 833 501 814 369 833 433 b 775 692 833 572 814 638 l 856 772 l 754 874 l 671 792 b 489 846 621 826 557 846 b 307 792 422 846 361 826 l 224 874 z m 325 501 b 489 665 325 590 401 665 b 653 501 578 665 653 589 b 489 338 653 411 578 338 b 325 501 400 338 325 411 z "},"€":{"ha":978,"x_min":0,"x_max":0,"o":"m 554 1029 b 121 678 324 1029 169 907 l 46 678 l 14 542 l 106 542 l 106 467 l 47 467 l 14 331 l 121 331 b 551 -26 171 93 317 -26 b 968 290 772 -26 968 68 l 624 290 b 554 189 621 236 606 189 b 479 331 492 189 486 263 l 626 331 l 661 467 l 474 467 l 474 542 l 679 542 l 713 678 l 478 678 b 556 814 482 740 493 814 b 624 724 606 814 621 778 l 968 724 b 554 1029 968 947 778 1029 z "},"¢":{"ha":978,"x_min":0,"x_max":0,"o":"m 407 868 l 407 718 b 88 351 207 679 88 542 b 407 -21 88 136 196 7 l 407 -171 l 604 -171 l 604 -21 b 890 278 808 18 890 121 l 890 282 l 579 282 b 501 151 572 182 553 151 b 424 339 429 151 424 211 b 507 546 424 485 436 546 b 579 411 556 546 578 517 l 890 411 b 604 718 881 579 781 694 l 604 868 z "},"£":{"ha":978,"x_min":0,"x_max":0,"o":"m 571 1029 b 151 668 292 1029 151 901 l 151 624 l 22 624 l 22 392 l 151 392 l 151 267 l 51 267 l 51 0 l 939 0 l 939 267 l 499 267 l 499 392 l 692 392 l 692 624 l 499 624 l 499 650 b 565 778 499 738 521 778 b 621 704 600 778 617 758 l 963 704 l 963 726 b 571 1029 963 931 819 1029 z "},"ƒ":{"ha":978,"x_min":0,"x_max":0,"o":"m 700 594 l 725 743 b 781 800 731 781 749 800 b 851 788 797 800 829 794 l 888 993 b 678 1025 856 1007 739 1025 b 464 953 582 1025 508 1003 b 374 681 414 896 392 804 l 361 594 l 175 594 l 175 364 l 317 364 l 264 50 b 243 -31 260 26 256 -10 b 192 -60 229 -57 207 -60 b 124 -44 174 -60 151 -54 l 92 -251 b 290 -290 164 -278 229 -290 b 535 -183 379 -290 483 -262 b 592 -6 563 -140 575 -96 l 658 364 l 844 364 l 844 594 z "},"¥":{"ha":978,"x_min":0,"x_max":0,"o":"m -21 1003 l 189 574 l 94 574 l 94 385 l 282 385 l 301 347 l 301 303 l 94 303 l 94 114 l 301 114 l 301 0 l 674 0 l 674 114 l 881 114 l 881 303 l 674 303 l 674 347 l 693 385 l 881 385 l 881 574 l 786 574 l 999 1003 l 635 1003 l 503 582 l 500 582 l 368 1003 z "},"ª":{"ha":539,"x_min":0,"x_max":0,"o":"m 268 1026 b 40 879 114 1026 40 975 l 224 879 b 260 921 224 911 233 921 b 294 889 288 921 294 911 l 294 860 b 267 861 286 861 276 861 b 18 706 100 861 18 807 b 176 571 18 621 76 571 b 300 619 238 571 267 585 l 303 582 l 500 582 b 499 614 499 596 499 607 l 499 872 b 463 978 499 915 490 951 b 268 1026 428 1010 356 1026 z m 211 725 b 286 771 211 754 232 771 l 297 771 l 297 740 b 253 689 297 706 286 689 b 211 725 225 689 211 701 z "},"º":{"ha":603,"x_min":0,"x_max":0,"o":"m 297 1029 b 28 794 126 1029 28 940 b 292 564 28 651 125 564 b 576 796 481 564 576 646 b 297 1029 576 950 475 1029 z m 260 788 b 304 904 260 878 269 904 b 346 801 336 904 346 875 b 301 686 346 717 335 686 b 260 788 268 686 260 714 z "},"¹":{"ha":617,"x_min":0,"x_max":0,"o":"m 260 1003 b 78 899 208 949 165 928 l 78 721 b 210 781 117 728 156 744 l 210 401 l 453 401 l 453 1003 z "},"²":{"ha":617,"x_min":0,"x_max":0,"o":"m 301 1014 b 29 804 119 1014 29 944 l 29 797 l 251 797 b 300 864 251 847 267 864 b 340 825 325 864 340 849 b 164 643 340 771 275 713 l 35 563 l 35 401 l 568 401 l 568 565 l 343 565 b 567 826 451 628 567 701 b 301 1014 567 949 481 1014 z "},"³":{"ha":617,"x_min":0,"x_max":0,"o":"m 301 1017 b 31 814 122 1017 31 947 l 31 808 l 244 808 b 290 872 244 857 257 872 b 340 828 324 872 340 857 b 253 772 340 788 315 772 b 219 774 246 772 235 772 l 219 638 b 244 639 229 639 238 639 b 346 582 322 639 346 621 b 293 531 346 547 328 531 b 238 596 256 531 238 551 l 21 596 l 21 590 b 301 385 21 451 111 385 b 581 579 479 385 581 456 b 463 717 581 651 540 703 b 569 844 531 733 569 782 b 301 1017 569 956 475 1017 z "},"⁄":{"ha":232,"x_min":0,"x_max":0,"o":"m 322 1038 l -237 -35 l -90 -35 l 469 1038 z "},"∕":{"ha":232,"x_min":0,"x_max":0,"o":"m 322 1038 l -237 -35 l -90 -35 l 469 1038 z "},"½":{"ha":1465,"x_min":0,"x_max":0,"o":"m 254 1003 b 72 899 203 949 160 928 l 72 721 b 204 781 111 728 150 744 l 204 401 l 447 401 l 447 1003 z m 914 1038 l 354 -35 l 501 -35 l 1061 1038 z m 1150 613 b 878 403 968 613 878 543 l 878 396 l 1100 396 b 1149 463 1100 446 1115 463 b 1189 424 1174 463 1189 447 b 1013 242 1189 369 1124 311 l 883 161 l 883 0 l 1417 0 l 1417 164 l 1192 164 b 1415 425 1300 226 1415 300 b 1150 613 1415 547 1329 613 z "},"⅓":{"ha":1465,"x_min":0,"x_max":0,"o":"m 254 1003 b 72 899 203 949 160 928 l 72 721 b 204 781 111 728 150 744 l 204 401 l 447 401 l 447 1003 z m 908 1038 l 349 -35 l 496 -35 l 1056 1038 z m 1149 615 b 878 413 969 615 878 546 l 878 407 l 1092 407 b 1138 471 1092 456 1104 471 b 1188 426 1171 471 1188 456 b 1100 371 1188 386 1163 371 b 1067 372 1093 371 1082 371 l 1067 236 b 1092 238 1076 238 1085 238 b 1193 181 1169 238 1193 219 b 1140 129 1193 146 1175 129 b 1085 194 1103 129 1085 150 l 868 194 l 868 189 b 1149 -17 868 50 958 -17 b 1428 178 1326 -17 1428 54 b 1310 315 1428 250 1388 301 b 1417 443 1378 332 1417 381 b 1149 615 1417 554 1322 615 z "},"¼":{"ha":1465,"x_min":0,"x_max":0,"o":"m 254 1003 b 72 899 203 949 160 928 l 72 721 b 204 781 111 728 150 744 l 204 401 l 447 401 l 447 1003 z m 926 1038 l 367 -35 l 514 -35 l 1074 1038 z m 1068 601 l 860 268 l 860 94 l 1143 94 l 1143 0 l 1369 0 l 1369 94 l 1444 94 l 1444 256 l 1369 256 l 1369 601 z m 1143 256 l 1044 256 b 1143 431 1076 314 1108 372 z "},"⅛":{"ha":1465,"x_min":0,"x_max":0,"o":"m 260 1003 b 78 899 208 949 165 928 l 78 721 b 210 781 117 728 156 744 l 210 401 l 453 401 l 453 1003 z m 911 1038 l 351 -35 l 499 -35 l 1058 1038 z m 1158 615 b 882 432 979 615 882 553 b 972 304 882 367 910 326 b 868 163 907 283 868 233 b 1138 -17 868 46 975 -17 b 1431 165 1326 -17 1431 44 b 1325 306 1431 239 1399 288 b 1413 433 1381 326 1413 372 b 1158 615 1413 551 1322 615 z m 1111 426 b 1150 474 1111 460 1124 474 b 1188 429 1176 474 1188 461 b 1149 376 1188 390 1176 376 b 1111 426 1122 376 1111 392 z m 1101 179 b 1150 236 1101 218 1118 236 b 1194 179 1182 236 1194 224 b 1147 126 1194 144 1179 126 b 1101 179 1115 126 1101 144 z "},"⅔":{"ha":1465,"x_min":0,"x_max":0,"o":"m 301 1014 b 29 804 119 1014 29 944 l 29 797 l 251 797 b 300 864 251 847 267 864 b 340 825 325 864 340 849 b 164 643 340 771 275 713 l 35 563 l 35 401 l 568 401 l 568 565 l 343 565 b 567 826 451 628 567 701 b 301 1014 567 949 481 1014 z m 950 1038 l 390 -35 l 538 -35 l 1097 1038 z m 1150 615 b 879 413 971 615 879 546 l 879 407 l 1093 407 b 1139 471 1093 456 1106 471 b 1189 426 1172 471 1189 456 b 1101 371 1189 386 1164 371 b 1068 372 1094 371 1083 371 l 1068 236 b 1093 238 1078 238 1086 238 b 1194 181 1171 238 1194 219 b 1142 129 1194 146 1176 129 b 1086 194 1104 129 1086 150 l 869 194 l 869 189 b 1150 -17 869 50 960 -17 b 1429 178 1328 -17 1429 54 b 1311 315 1429 250 1389 301 b 1418 443 1379 332 1418 381 b 1150 615 1418 554 1324 615 z "},"¾":{"ha":1465,"x_min":0,"x_max":0,"o":"m 301 1017 b 31 814 122 1017 31 947 l 31 808 l 244 808 b 290 872 244 857 257 872 b 340 828 324 872 340 857 b 253 772 340 788 315 772 b 219 774 246 772 235 772 l 219 638 b 244 639 229 639 238 639 b 346 582 322 639 346 621 b 293 531 346 547 328 531 b 238 596 256 531 238 551 l 21 596 l 21 590 b 301 385 21 451 111 385 b 581 579 479 385 581 456 b 463 717 581 651 540 703 b 569 844 531 733 569 782 b 301 1017 569 956 475 1017 z m 943 1038 l 383 -35 l 531 -35 l 1090 1038 z m 1046 601 l 838 268 l 838 94 l 1121 94 l 1121 0 l 1347 0 l 1347 94 l 1422 94 l 1422 256 l 1347 256 l 1347 601 z m 1121 256 l 1022 256 b 1121 431 1054 314 1086 372 z "},"⅜":{"ha":1465,"x_min":0,"x_max":0,"o":"m 301 1017 b 31 814 122 1017 31 947 l 31 808 l 244 808 b 290 872 244 857 257 872 b 340 828 324 872 340 857 b 253 772 340 788 315 772 b 219 774 246 772 235 772 l 219 638 b 244 639 229 639 238 639 b 346 582 322 639 346 621 b 293 531 346 547 328 531 b 238 596 256 531 238 551 l 21 596 l 21 590 b 301 385 21 451 111 385 b 581 579 479 385 581 456 b 463 717 581 651 540 703 b 569 844 531 733 569 782 b 301 1017 569 956 475 1017 z m 936 1038 l 376 -35 l 524 -35 l 1083 1038 z m 1161 615 b 885 432 982 615 885 553 b 975 304 885 367 913 326 b 871 163 910 283 871 233 b 1140 -17 871 46 978 -17 b 1433 165 1329 -17 1433 44 b 1328 306 1433 239 1401 288 b 1415 433 1383 326 1415 372 b 1161 615 1415 551 1325 615 z m 1114 426 b 1153 474 1114 460 1126 474 b 1190 429 1179 474 1190 461 b 1151 376 1190 390 1179 376 b 1114 426 1125 376 1114 392 z m 1104 179 b 1153 236 1104 218 1121 236 b 1197 179 1185 236 1197 224 b 1150 126 1197 144 1182 126 b 1104 179 1118 126 1104 144 z "},"⅝":{"ha":1465,"x_min":0,"x_max":0,"o":"m 63 1003 l 50 635 l 261 635 b 300 681 263 663 278 681 b 342 610 331 681 342 665 b 297 529 342 556 335 529 b 265 574 279 529 265 546 l 39 574 b 304 385 43 451 136 385 b 581 617 478 385 581 474 b 376 811 581 735 500 811 b 258 776 328 811 292 803 l 264 851 l 544 851 l 544 1003 z m 938 1038 l 378 -35 l 525 -35 l 1085 1038 z m 1163 615 b 886 432 983 615 886 553 b 976 304 886 367 914 326 b 872 163 911 283 872 233 b 1142 -17 872 46 979 -17 b 1435 165 1331 -17 1435 44 b 1329 306 1435 239 1403 288 b 1417 433 1385 326 1417 372 b 1163 615 1417 551 1326 615 z m 1115 426 b 1154 474 1115 460 1128 474 b 1192 429 1181 474 1192 461 b 1153 376 1192 390 1181 376 b 1115 426 1126 376 1115 392 z m 1106 179 b 1154 236 1106 218 1122 236 b 1199 179 1186 236 1199 224 b 1151 126 1199 144 1183 126 b 1106 179 1119 126 1106 144 z "},"⅞":{"ha":1465,"x_min":0,"x_max":0,"o":"m 67 1003 l 67 833 l 333 833 l 104 401 l 365 401 l 594 868 l 594 1003 z m 892 1038 l 332 -35 l 479 -35 l 1039 1038 z m 1164 615 b 888 432 985 615 888 553 b 978 304 888 367 915 326 b 874 163 913 283 874 233 b 1143 -17 874 46 981 -17 b 1436 165 1332 -17 1436 44 b 1331 306 1436 239 1404 288 b 1418 433 1386 326 1418 372 b 1164 615 1418 551 1328 615 z m 1117 426 b 1156 474 1117 460 1129 474 b 1193 429 1182 474 1193 461 b 1154 376 1193 390 1182 376 b 1117 426 1128 376 1117 392 z m 1107 179 b 1156 236 1107 218 1124 236 b 1200 179 1188 236 1200 224 b 1153 126 1200 144 1185 126 b 1107 179 1121 126 1107 144 z "},"‰":{"ha":1619,"x_min":0,"x_max":0,"o":"m 756 1038 l 196 -35 l 343 -35 l 903 1038 z m 250 1029 b 4 707 88 1029 4 922 b 232 407 4 519 88 407 b 476 729 393 407 476 513 b 250 1029 476 917 393 1029 z m 193 718 b 239 882 193 846 201 882 b 288 718 283 882 288 831 b 240 554 288 603 283 554 b 193 718 197 554 193 601 z m 871 596 b 626 274 710 596 626 489 b 853 -26 626 86 710 -26 b 1099 296 1015 -26 1099 79 b 871 596 1099 483 1015 596 z m 1389 596 b 1143 274 1226 596 1143 489 b 1369 -26 1143 86 1226 -26 b 1615 296 1531 -26 1615 78 b 1389 596 1615 483 1532 596 z m 815 285 b 863 449 815 407 822 449 b 910 285 903 449 910 407 b 863 121 910 168 906 121 b 815 285 819 121 815 172 z m 1332 285 b 1379 449 1332 407 1339 449 b 1426 285 1419 449 1426 407 b 1379 121 1426 168 1422 121 b 1332 285 1336 121 1332 172 z "},"−":{"ha":833,"x_min":0,"x_max":0,"o":"m 65 446 l 65 257 l 768 257 l 768 446 z "},"±":{"ha":833,"x_min":0,"x_max":0,"o":"m 322 703 l 322 557 l 65 557 l 65 368 l 322 368 l 322 222 l 511 222 l 511 368 l 768 368 l 768 557 l 511 557 l 511 703 z m 65 189 l 65 0 l 768 0 l 768 189 z "},"×":{"ha":833,"x_min":0,"x_max":0,"o":"m 81 557 l 288 351 l 81 146 l 211 15 l 417 221 l 622 15 l 753 146 l 546 351 l 753 557 l 622 688 l 417 482 l 211 688 z "},"÷":{"ha":833,"x_min":0,"x_max":0,"o":"m 417 765 b 290 639 346 765 290 707 b 417 513 290 571 346 513 b 543 639 488 513 543 571 b 417 765 543 707 488 765 z m 65 446 l 65 257 l 768 257 l 768 446 z m 417 190 b 290 64 349 190 290 135 b 417 -62 290 -4 346 -62 b 543 64 488 -62 543 -4 b 417 190 543 132 488 190 z "},"≠":{"ha":824,"x_min":0,"x_max":0,"o":"m 431 658 l 32 658 l 32 439 l 322 439 l 264 318 l 32 318 l 32 100 l 156 100 l 92 -32 l 283 -126 l 394 100 l 790 100 l 790 318 l 501 318 l 561 439 l 790 439 l 790 658 l 668 658 l 732 788 l 542 882 z "},"≈":{"ha":824,"x_min":0,"x_max":0,"o":"m 239 707 b 19 407 115 707 24 567 l 160 407 b 232 482 164 451 192 482 b 415 439 293 482 340 461 b 583 399 486 418 525 399 b 804 699 707 399 789 529 l 663 699 b 590 625 658 658 640 625 b 426 663 547 625 486 642 b 239 707 358 686 289 707 z m 239 358 b 19 61 110 358 25 221 l 160 61 b 232 133 164 106 192 133 b 415 90 293 133 340 114 b 586 50 486 68 535 50 b 804 351 722 50 789 182 l 663 351 b 590 276 657 311 640 276 b 426 313 547 276 486 292 b 239 358 358 336 289 358 z "},"≤":{"ha":824,"x_min":0,"x_max":0,"o":"m 790 828 l 32 622 l 32 406 l 790 178 l 790 401 l 338 514 l 790 606 z m 32 144 l 32 -74 l 790 -74 l 790 144 z "},"≥":{"ha":824,"x_min":0,"x_max":0,"o":"m 32 828 l 32 606 l 486 514 l 32 401 l 32 178 l 790 406 l 790 622 z m 32 144 l 32 -74 l 790 -74 l 790 144 z "},"¬":{"ha":833,"x_min":0,"x_max":0,"o":"m 65 615 l 65 426 l 579 426 l 579 175 l 768 175 l 768 615 z "},"∆":{"ha":1092,"x_min":0,"x_max":0,"o":"m 336 1003 l -14 0 l 1106 0 l 724 1003 z m 533 753 l 708 211 l 374 211 z "},"Δ":{"ha":1092,"x_min":0,"x_max":0,"o":"m 336 1003 l -14 0 l 1106 0 l 724 1003 z m 533 753 l 708 211 l 374 211 z "},"Ω":{"ha":1110,"x_min":0,"x_max":0,"o":"m 561 1029 b 74 590 261 1029 74 844 b 319 235 74 418 169 271 l 319 224 l 74 224 l 74 0 l 510 0 l 510 369 b 404 574 444 376 404 426 b 560 793 404 729 457 793 b 704 578 657 793 704 739 b 692 446 704 518 701 475 b 599 369 672 392 638 378 l 599 0 l 1035 0 l 1035 224 l 789 224 l 789 235 b 1036 593 938 265 1036 419 b 561 1029 1036 843 842 1029 z "},"Ω":{"ha":1110,"x_min":0,"x_max":0,"o":"m 561 1029 b 74 590 261 1029 74 844 b 319 235 74 418 169 271 l 319 224 l 74 224 l 74 0 l 510 0 l 510 369 b 404 574 444 376 404 426 b 560 793 404 729 457 793 b 704 578 657 793 704 739 b 692 446 704 518 701 475 b 599 369 672 392 638 378 l 599 0 l 1035 0 l 1035 224 l 789 224 l 789 235 b 1036 593 938 265 1036 419 b 561 1029 1036 843 842 1029 z "},"µ":{"ha":900,"x_min":0,"x_max":0,"o":"m 50 697 l 50 -267 l 386 -267 l 386 -15 b 408 -21 388 -17 397 -21 b 511 106 443 -21 479 29 l 514 106 l 522 0 l 850 0 l 850 697 l 514 697 l 514 260 b 447 185 514 210 486 185 b 386 257 410 185 386 214 l 386 697 z "},"μ":{"ha":900,"x_min":0,"x_max":0,"o":"m 50 697 l 50 -267 l 386 -267 l 386 -15 b 408 -21 388 -17 397 -21 b 511 106 443 -21 479 29 l 514 106 l 522 0 l 850 0 l 850 697 l 514 697 l 514 260 b 447 185 514 210 486 185 b 386 257 410 185 386 214 l 386 697 z "},"π":{"ha":944,"x_min":0,"x_max":0,"o":"m 0 694 l 0 493 l 97 493 l 97 0 l 396 0 l 396 493 l 511 493 l 511 186 b 688 -12 511 53 565 -12 b 908 29 750 -12 860 3 l 908 182 b 863 171 893 175 881 171 b 810 239 824 171 810 199 l 810 493 l 908 493 l 908 694 z "},"°":{"ha":556,"x_min":0,"x_max":0,"o":"m 278 1029 b 79 831 167 1029 79 939 b 278 632 79 719 169 632 b 476 831 386 632 476 721 b 278 1029 476 938 390 1029 z m 201 831 b 278 907 201 874 239 907 b 354 831 321 907 354 871 b 278 754 354 790 321 754 b 201 831 238 754 201 790 z "},"ℓ":{"ha":881,"x_min":0,"x_max":0,"o":"m 472 997 b 167 621 276 997 167 856 l 167 365 l 39 282 l 107 139 l 174 178 b 463 -14 213 57 290 -14 b 832 204 619 -14 749 61 l 710 322 b 525 206 636 232 575 206 b 419 303 463 206 419 242 l 419 308 b 703 604 603 450 671 529 b 729 736 721 646 729 688 b 472 997 729 897 626 997 z m 419 679 b 481 831 419 781 443 831 b 529 736 510 831 529 792 b 419 542 529 671 490 613 z "},"℮":{"ha":1375,"x_min":0,"x_max":0,"o":"m 1267 486 b 685 1024 1267 735 1131 1024 b 107 489 324 1024 107 763 b 688 -21 107 217 318 -21 b 1164 182 926 -21 1050 44 l 1063 182 b 683 17 963 88 850 17 b 331 168 532 17 407 72 b 319 211 322 176 319 197 l 319 478 b 328 486 319 485 322 486 z m 1053 524 b 1046 517 1053 518 1050 517 l 328 517 b 319 524 322 517 319 518 l 319 800 b 333 839 319 815 324 831 b 681 988 435 944 567 988 b 1038 836 782 988 940 958 b 1053 799 1047 825 1053 813 z "},"ŋ":{"ha":900,"x_min":0,"x_max":0,"o":"m 608 718 b 389 592 508 718 435 674 l 386 592 l 378 697 l 50 697 l 50 0 l 386 0 l 386 438 b 453 513 386 488 414 513 b 514 435 496 513 514 481 l 514 8 b 435 -86 514 -51 499 -86 b 397 -83 422 -86 410 -85 l 397 -256 b 515 -267 431 -265 464 -267 b 819 -165 717 -267 783 -231 b 850 -29 840 -129 850 -85 l 850 469 b 608 718 850 626 769 718 z "},"Ŋ":{"ha":1156,"x_min":0,"x_max":0,"o":"m 71 1003 l 71 0 l 393 0 l 393 611 l 396 611 l 608 0 l 769 0 b 683 -100 767 -67 735 -100 b 646 -97 672 -100 658 -99 l 646 -256 b 774 -267 675 -265 708 -267 b 993 -231 875 -267 946 -257 b 1085 -29 1065 -190 1085 -110 l 1085 1003 l 763 1003 l 763 396 l 760 396 l 547 1003 z "},"∞":{"ha":1235,"x_min":0,"x_max":0,"o":"m 344 681 b 63 383 175 681 63 563 b 351 78 63 204 176 78 b 617 240 451 78 532 124 b 890 78 704 125 789 78 b 1172 383 1063 78 1172 204 b 890 681 1172 561 1058 681 b 617 506 781 681 706 635 b 344 681 524 635 450 681 z m 246 378 b 346 490 246 443 289 490 b 507 376 396 490 451 450 b 347 269 451 300 403 269 b 246 378 286 269 246 311 z m 726 376 b 883 490 783 456 833 490 b 989 379 946 490 989 442 b 888 269 989 311 949 269 b 726 376 831 269 778 303 z "},"∂":{"ha":824,"x_min":0,"x_max":0,"o":"m 374 1001 b 96 886 268 1001 185 969 l 213 757 b 379 838 258 801 311 838 b 546 572 486 838 544 738 b 375 629 496 607 438 629 b 63 310 197 629 63 489 b 399 -19 63 113 200 -19 b 761 497 638 -19 761 164 b 374 1001 761 815 619 1001 z m 271 300 b 410 468 271 394 326 468 b 543 408 454 468 508 443 l 543 389 b 399 139 543 239 488 139 b 271 300 322 139 271 210 z "},"∫":{"ha":926,"x_min":0,"x_max":0,"o":"m 597 1092 b 353 919 472 1092 392 1026 b 322 657 333 865 322 808 l 322 85 b 335 -144 322 19 335 -71 b 307 -206 335 -196 324 -206 b 276 -143 286 -206 282 -183 b 182 -56 267 -83 239 -56 b 83 -157 122 -56 83 -100 b 282 -299 83 -249 183 -299 b 556 129 464 -299 556 -181 l 556 682 b 544 947 556 754 544 860 b 572 1000 544 968 546 1000 b 603 936 592 1000 599 979 b 694 849 610 875 639 849 b 796 950 754 849 796 890 b 597 1092 796 1039 704 1092 z "},"√":{"ha":849,"x_min":0,"x_max":0,"o":"m 626 1092 l 411 36 l 267 358 l -8 232 l 72 63 l 153 100 l 347 -297 l 544 -297 l 857 1092 z "},"∑":{"ha":978,"x_min":0,"x_max":0,"o":"m 57 1092 l 57 901 l 439 407 l 42 -110 l 42 -297 l 936 -297 l 936 -81 l 325 -81 l 694 407 l 346 875 l 919 875 l 919 1092 z "},"∏":{"ha":1054,"x_min":0,"x_max":0,"o":"m 67 1092 l 67 -297 l 285 -297 l 285 876 l 771 876 l 771 -297 l 988 -297 l 988 1092 z "},"◊":{"ha":824,"x_min":0,"x_max":0,"o":"m 314 1038 l 42 494 l 311 -49 l 508 -49 l 781 494 l 508 1038 z m 411 815 l 556 494 l 411 174 l 265 494 z "},"":{"ha":711,"x_min":0,"x_max":0,"o":"m 0 997 l 0 0 l 711 0 l 711 997 z m 69 69 l 69 926 l 642 926 l 642 69 z m 532 664 b 360 846 532 775 460 846 b 172 656 261 846 185 789 l 242 644 b 356 776 253 739 299 776 b 461 658 413 776 461 725 b 310 378 461 556 310 522 l 310 324 l 378 324 l 378 368 b 406 460 378 419 388 439 b 532 664 463 522 532 556 z m 301 163 l 386 163 l 386 256 l 301 256 z "},"":{"ha":978,"x_min":0,"x_max":0,"o":"m 544 992 b 360 1011 479 1007 397 1011 b 93 864 228 1011 132 960 b 75 744 79 829 75 789 l 75 694 l -7 694 l -7 489 l 75 489 l 75 0 l 411 0 l 411 492 l 529 492 l 529 697 l 411 697 l 411 739 b 476 797 411 769 421 797 b 544 794 493 797 522 796 z m 592 1003 l 592 789 l 928 789 l 928 1003 z m 592 697 l 592 0 l 928 0 l 928 697 z "},"":{"ha":978,"x_min":0,"x_max":0,"o":"m 544 992 b 360 1011 479 1007 397 1011 b 93 864 228 1011 132 960 b 75 744 79 829 75 789 l 75 694 l -7 694 l -7 489 l 75 489 l 75 0 l 411 0 l 411 492 l 529 492 l 529 697 l 411 697 l 411 739 b 476 797 411 769 421 797 b 544 794 493 797 522 796 z m 592 1003 l 592 0 l 928 0 l 928 1003 z "},"‐":{"ha":565,"x_min":0,"x_max":0,"o":"m 40 485 l 40 253 l 525 253 l 525 485 z "},"‽":{"ha":746,"x_min":0,"x_max":0,"o":"m 336 1029 b 42 983 247 1029 146 1013 l 42 776 b 238 811 119 800 192 811 b 364 719 310 811 358 775 l 119 719 l 156 289 l 435 289 l 439 342 b 519 464 443 390 463 422 b 718 744 619 536 718 614 b 336 1029 718 928 574 1029 z m 129 228 l 129 0 l 463 0 l 463 228 z "},"⁰":{"ha":636,"x_min":0,"x_max":0,"o":"m 321 1017 b 33 696 132 1017 33 906 b 304 385 33 486 122 385 b 601 699 500 385 601 494 b 321 1017 601 922 511 1017 z m 364 697 b 319 542 364 565 349 542 b 271 693 285 542 271 571 b 318 860 271 836 286 860 b 364 697 360 860 364 815 z "},"⁴":{"ha":617,"x_min":0,"x_max":0,"o":"m 228 1003 l 19 669 l 19 496 l 303 496 l 303 401 l 529 401 l 529 496 l 604 496 l 604 657 l 529 657 l 529 1003 z m 303 657 l 204 657 b 303 832 236 715 268 774 z "},"⁵":{"ha":617,"x_min":0,"x_max":0,"o":"m 60 1003 l 47 635 l 258 635 b 297 681 260 663 275 681 b 339 610 328 681 339 665 b 294 529 339 556 332 529 b 263 574 276 529 263 546 l 36 574 b 301 385 40 451 133 385 b 578 617 475 385 578 474 b 374 811 578 735 497 811 b 256 776 325 811 289 803 l 261 851 l 542 851 l 542 1003 z "},"⁶":{"ha":636,"x_min":0,"x_max":0,"o":"m 338 1017 b 40 696 144 1017 40 901 b 324 385 40 494 135 385 b 600 610 494 385 600 471 b 386 796 600 721 513 796 b 267 756 335 796 296 785 b 281 836 268 788 274 815 b 326 875 289 863 300 875 b 363 832 350 875 363 861 l 572 832 l 572 838 b 338 1017 572 950 494 1017 z m 276 594 b 328 668 276 646 296 668 b 379 604 365 668 379 649 b 326 529 379 554 360 529 b 276 594 293 529 276 551 z "},"⁷":{"ha":617,"x_min":0,"x_max":0,"o":"m 49 1003 l 49 833 l 315 833 l 86 401 l 347 401 l 576 868 l 576 1003 z "},"⁸":{"ha":617,"x_min":0,"x_max":0,"o":"m 317 1017 b 40 833 138 1017 40 954 b 131 706 40 768 68 728 b 26 564 65 685 26 635 b 296 385 26 447 133 385 b 589 567 485 385 589 446 b 483 707 589 640 557 689 b 571 835 539 728 571 774 b 317 1017 571 953 481 1017 z m 269 828 b 308 875 269 861 282 875 b 346 831 335 875 346 863 b 307 778 346 792 335 778 b 269 828 281 778 269 793 z m 260 581 b 308 638 260 619 276 638 b 353 581 340 638 353 625 b 306 528 353 546 338 528 b 260 581 274 528 260 546 z "},"⁹":{"ha":636,"x_min":0,"x_max":0,"o":"m 311 1017 b 36 793 140 1017 36 931 b 247 607 36 678 125 607 b 365 646 301 607 338 617 b 361 589 365 625 364 606 b 308 526 356 551 343 526 b 274 569 286 526 274 543 l 64 569 b 299 385 64 450 140 385 b 594 707 489 385 594 500 b 311 1017 594 913 500 1017 z m 258 799 b 308 872 258 853 281 872 b 358 807 343 872 358 850 b 306 733 358 756 340 733 b 258 799 274 733 258 753 z "},"⁺":{"ha":528,"x_min":0,"x_max":0,"o":"m 197 824 l 197 679 l 53 679 l 53 546 l 197 546 l 197 401 l 331 401 l 331 546 l 475 546 l 475 679 l 331 679 l 331 824 z "},"⁻":{"ha":528,"x_min":0,"x_max":0,"o":"m 53 679 l 53 546 l 475 546 l 475 679 z "},"⁼":{"ha":528,"x_min":0,"x_max":0,"o":"m 49 776 l 49 642 l 479 642 l 479 776 z m 49 583 l 49 449 l 479 449 l 479 583 z "},"⁽":{"ha":339,"x_min":0,"x_max":0,"o":"m 156 1003 b 56 642 90 864 56 729 b 156 279 56 560 101 401 l 315 279 b 246 646 274 407 246 556 b 315 1003 246 744 271 854 z "},"⁾":{"ha":339,"x_min":0,"x_max":0,"o":"m 24 1003 b 93 646 71 847 93 739 b 24 279 93 551 61 394 l 183 279 b 283 642 253 442 283 568 b 183 1003 283 726 253 854 z "},"ⁿ":{"ha":594,"x_min":0,"x_max":0,"o":"m 399 1025 b 261 961 336 1025 296 1006 l 258 1011 l 44 1011 l 44 578 l 269 578 l 269 842 b 303 889 269 868 281 889 b 333 844 324 889 333 871 l 333 578 l 556 578 l 556 853 b 499 994 556 918 539 965 b 399 1025 474 1013 442 1025 z "},"₀":{"ha":636,"x_min":0,"x_max":0,"o":"m 321 615 b 33 294 132 615 33 504 b 304 -17 33 85 122 -17 b 601 297 500 -17 601 93 b 321 615 601 521 511 615 z m 364 296 b 319 140 364 164 349 140 b 271 292 285 140 271 169 b 318 458 271 435 286 458 b 364 296 360 458 364 414 z "},"₁":{"ha":617,"x_min":0,"x_max":0,"o":"m 260 601 b 78 497 208 547 165 526 l 78 319 b 210 379 117 326 156 343 l 210 0 l 453 0 l 453 601 z "},"₂":{"ha":617,"x_min":0,"x_max":0,"o":"m 301 613 b 29 403 119 613 29 543 l 29 396 l 251 396 b 300 463 251 446 267 463 b 340 424 325 463 340 447 b 164 242 340 369 275 311 l 35 161 l 35 0 l 568 0 l 568 164 l 343 164 b 567 425 451 226 567 300 b 301 613 567 547 481 613 z "},"₃":{"ha":617,"x_min":0,"x_max":0,"o":"m 301 615 b 31 413 122 615 31 546 l 31 407 l 244 407 b 290 471 244 456 257 471 b 340 426 324 471 340 456 b 253 371 340 386 315 371 b 219 372 246 371 235 371 l 219 236 b 244 238 229 238 238 238 b 346 181 322 238 346 219 b 293 129 346 146 328 129 b 238 194 256 129 238 150 l 21 194 l 21 189 b 301 -17 21 50 111 -17 b 581 178 479 -17 581 54 b 463 315 581 250 540 301 b 569 443 531 332 569 381 b 301 615 569 554 475 615 z "},"₄":{"ha":617,"x_min":0,"x_max":0,"o":"m 228 601 l 19 268 l 19 94 l 303 94 l 303 0 l 529 0 l 529 94 l 604 94 l 604 256 l 529 256 l 529 601 z m 303 256 l 204 256 b 303 431 236 314 268 372 z "},"₅":{"ha":617,"x_min":0,"x_max":0,"o":"m 60 601 l 47 233 l 258 233 b 297 279 260 261 275 279 b 339 208 328 279 339 264 b 294 128 339 154 332 128 b 263 172 276 128 263 144 l 36 172 b 301 -17 40 50 133 -17 b 578 215 475 -17 578 72 b 374 410 578 333 497 410 b 256 375 325 410 289 401 l 261 450 l 542 450 l 542 601 z "},"₆":{"ha":636,"x_min":0,"x_max":0,"o":"m 338 615 b 40 294 144 615 40 500 b 324 -17 40 93 135 -17 b 600 208 494 -17 600 69 b 386 394 600 319 513 394 b 267 354 335 394 296 383 b 281 435 268 386 274 414 b 326 474 289 461 300 474 b 363 431 350 474 363 460 l 572 431 l 572 436 b 338 615 572 549 494 615 z m 276 193 b 328 267 276 244 296 267 b 379 203 365 267 379 247 b 326 128 379 153 360 128 b 276 193 293 128 276 150 z "},"₇":{"ha":617,"x_min":0,"x_max":0,"o":"m 49 601 l 49 432 l 315 432 l 86 0 l 347 0 l 576 467 l 576 601 z "},"₈":{"ha":617,"x_min":0,"x_max":0,"o":"m 317 615 b 40 432 138 615 40 553 b 131 304 40 367 68 326 b 26 163 65 283 26 233 b 296 -17 26 46 133 -17 b 589 165 485 -17 589 44 b 483 306 589 239 557 288 b 571 433 539 326 571 372 b 317 615 571 551 481 615 z m 269 426 b 308 474 269 460 282 474 b 346 429 335 474 346 461 b 307 376 346 390 335 376 b 269 426 281 376 269 392 z m 260 179 b 308 236 260 218 276 236 b 353 179 340 236 353 224 b 306 126 353 144 338 126 b 260 179 274 126 260 144 z "},"₉":{"ha":636,"x_min":0,"x_max":0,"o":"m 311 615 b 36 392 140 615 36 529 b 247 206 36 276 125 206 b 365 244 301 206 338 215 b 361 188 365 224 364 204 b 308 125 356 150 343 125 b 274 168 286 125 274 142 l 64 168 b 299 -17 64 49 140 -17 b 594 306 489 -17 594 99 b 311 615 594 511 500 615 z m 258 397 b 308 471 258 451 281 471 b 358 406 343 471 358 449 b 306 332 358 354 340 332 b 258 397 274 332 258 351 z "},"₊":{"ha":528,"x_min":0,"x_max":0,"o":"m 197 422 l 197 278 l 53 278 l 53 144 l 197 144 l 197 0 l 331 0 l 331 144 l 475 144 l 475 278 l 331 278 l 331 422 z "},"₋":{"ha":528,"x_min":0,"x_max":0,"o":"m 53 278 l 53 144 l 475 144 l 475 278 z "},"₌":{"ha":528,"x_min":0,"x_max":0,"o":"m 49 375 l 49 240 l 479 240 l 479 375 z m 49 182 l 49 47 l 479 47 l 479 182 z "},"₍":{"ha":339,"x_min":0,"x_max":0,"o":"m 156 601 b 56 240 90 463 56 328 b 156 -122 56 158 101 0 l 315 -122 b 246 244 274 6 246 154 b 315 601 246 343 271 453 z "},"₎":{"ha":339,"x_min":0,"x_max":0,"o":"m 24 601 b 93 244 71 446 93 338 b 24 -122 93 150 61 -7 l 183 -122 b 283 240 253 40 283 167 b 183 601 283 325 253 453 z "},"℅":{"ha":1439,"x_min":0,"x_max":0,"o":"m 907 1038 l 347 -35 l 494 -35 l 1054 1038 z m 336 1025 b 69 796 171 1025 69 940 b 336 565 69 646 158 565 b 585 754 501 565 585 636 l 585 764 l 376 764 l 376 758 b 338 681 376 708 361 681 b 290 765 306 681 290 697 l 290 806 b 338 908 290 883 304 908 b 376 832 365 908 375 892 l 582 832 b 336 1025 582 954 488 1025 z m 1090 447 b 821 213 919 447 821 358 b 1085 -18 821 68 919 -18 b 1369 214 1274 -18 1369 64 b 1090 447 1369 365 1268 447 z m 1053 206 b 1097 322 1053 296 1063 322 b 1139 219 1129 322 1139 293 b 1094 104 1139 135 1128 104 b 1053 206 1061 104 1053 129 z "},"℗":{"ha":1111,"x_min":0,"x_max":0,"o":"m 556 1029 b 28 501 260 1029 28 788 b 556 -26 28 215 260 -26 b 1083 501 853 -26 1083 215 b 556 1029 1083 788 851 1029 z m 192 501 b 554 865 192 700 353 865 b 919 501 761 865 919 699 b 556 138 919 301 758 138 b 192 501 356 138 192 300 z m 372 785 l 372 228 l 525 228 l 525 442 l 606 442 b 739 474 664 442 707 451 b 807 618 788 507 807 564 b 576 785 807 718 743 785 z m 522 688 l 561 688 b 660 618 635 688 660 667 b 554 538 660 539 596 538 l 522 538 z "},"₹":{"ha":978,"x_min":0,"x_max":0,"o":"m 896 613 l 896 769 l 718 769 b 683 846 711 797 700 822 l 896 846 l 896 1003 l 104 1003 l 104 846 l 247 846 b 351 769 296 846 336 818 l 104 769 l 104 613 l 353 613 b 233 535 335 557 290 535 l 104 535 l 104 368 l 397 0 l 786 0 l 433 408 b 482 413 450 408 467 411 b 724 613 607 429 701 497 z "},"₺":{"ha":978,"x_min":0,"x_max":0,"o":"m 682 840 l 682 983 l 472 889 l 472 1003 l 104 1003 l 104 724 l 11 682 l 11 539 l 104 581 l 104 497 l 11 456 l 11 313 l 104 354 l 104 0 l 458 0 b 967 531 788 0 967 186 l 597 531 l 597 500 b 494 249 597 401 592 249 l 472 249 l 472 519 l 682 614 l 682 757 l 472 663 l 472 746 z "},"ẞ":{"ha":1365,"x_min":0,"x_max":0,"o":"m 1163 1001 b 692 1032 1032 1021 817 1032 b 64 619 297 1032 64 956 l 64 0 l 457 0 l 457 640 b 651 814 457 768 539 814 b 740 810 676 814 701 813 b 590 639 650 779 590 719 b 824 407 590 511 697 458 b 993 263 960 351 993 317 b 921 190 993 217 957 190 b 843 285 861 190 844 233 l 511 285 b 914 -29 517 60 682 -29 b 1347 297 1136 -29 1347 51 b 1167 579 1347 435 1282 517 b 983 707 1078 628 983 643 b 1158 785 983 769 1100 785 z "},"₼":{"ha":1440,"x_min":0,"x_max":0,"o":"m 894 1003 l 532 1003 l 532 851 b 35 88 182 771 35 438 l 35 0 l 403 0 l 403 40 b 532 604 403 174 410 514 l 532 97 l 894 97 l 894 604 b 1024 40 1017 514 1024 171 l 1024 0 l 1392 0 l 1392 88 b 894 851 1392 438 1244 771 z "},"₽":{"ha":978,"x_min":0,"x_max":0,"o":"m 501 132 l 740 132 l 740 321 l 501 321 l 501 378 l 582 378 b 971 685 811 378 971 456 b 582 1003 971 919 817 1003 l 167 1003 l 164 567 l 28 567 l 28 378 l 164 378 l 164 318 l 28 318 l 28 129 l 164 129 l 164 0 l 501 0 z m 531 763 b 631 667 597 763 631 733 b 531 567 631 599 594 567 l 501 567 l 501 763 z "}}}
